<svg width="721" height="58" viewBox="0 0 721 58" fill="none" xmlns="http://www.w3.org/2000/svg">
<path d="M29.3771 22.375C29.1385 21.5455 28.8033 20.8125 28.3715 20.1761C27.9396 19.5284 27.4112 18.983 26.7862 18.5398C26.1726 18.0852 25.468 17.7386 24.6726 17.5C23.8885 17.2614 23.0192 17.142 22.0646 17.142C20.2805 17.142 18.7124 17.5852 17.3601 18.4716C16.0192 19.358 14.9737 20.6477 14.2237 22.3409C13.4737 24.0227 13.0987 26.0795 13.0987 28.5114C13.0987 30.9432 13.468 33.0114 14.2067 34.7159C14.9453 36.4205 15.9908 37.7216 17.343 38.6193C18.6953 39.5057 20.2919 39.9489 22.1328 39.9489C23.8033 39.9489 25.2294 39.6534 26.4112 39.0625C27.6044 38.4602 28.5135 37.6136 29.1385 36.5227C29.7749 35.4318 30.093 34.142 30.093 32.6534L31.593 32.875H22.593V27.3182H37.201V31.7159C37.201 34.7841 36.5533 37.4205 35.2578 39.625C33.9624 41.8182 32.1783 43.5114 29.9055 44.7045C27.6328 45.8864 25.0305 46.4773 22.0987 46.4773C18.826 46.4773 15.951 45.7557 13.4737 44.3125C10.9964 42.858 9.06463 40.7955 7.67827 38.125C6.30327 35.4432 5.61577 32.2614 5.61577 28.5795C5.61577 25.75 6.02486 23.2273 6.84304 21.0114C7.67259 18.7841 8.83168 16.8977 10.3203 15.3523C11.8089 13.8068 13.5419 12.6307 15.5192 11.8239C17.4964 11.017 19.6385 10.6136 21.9453 10.6136C23.9226 10.6136 25.7635 10.9034 27.468 11.483C29.1726 12.0511 30.6839 12.858 32.0021 13.9034C33.3317 14.9489 34.4169 16.1932 35.2578 17.6364C36.0987 19.0682 36.6385 20.6477 36.8771 22.375H29.3771ZM42.6087 46V19.8182H49.6484V24.3864H49.9212C50.3984 22.7614 51.1996 21.5341 52.3246 20.7045C53.4496 19.8636 54.745 19.4432 56.2109 19.4432C56.5746 19.4432 56.9666 19.4659 57.3871 19.5114C57.8075 19.5568 58.1768 19.6193 58.495 19.6989V26.142C58.1541 26.0398 57.6825 25.9489 57.0803 25.8693C56.478 25.7898 55.9268 25.75 55.4268 25.75C54.3587 25.75 53.4041 25.983 52.5632 26.4489C51.7337 26.9034 51.0746 27.5398 50.5859 28.358C50.1087 29.1761 49.87 30.1193 49.87 31.1875V46H42.6087ZM68.9652 46.4943C67.2947 46.4943 65.8061 46.2045 64.4993 45.625C63.1925 45.0341 62.1584 44.1648 61.397 43.017C60.647 41.858 60.272 40.4148 60.272 38.6875C60.272 37.233 60.5391 36.0114 61.0732 35.0227C61.6072 34.0341 62.3345 33.2386 63.255 32.6364C64.1754 32.0341 65.2209 31.5795 66.3913 31.2727C67.5732 30.9659 68.8118 30.75 70.1072 30.625C71.63 30.4659 72.8572 30.3182 73.7891 30.1818C74.7209 30.0341 75.397 29.8182 75.8175 29.5341C76.2379 29.25 76.4482 28.8295 76.4482 28.2727V28.1705C76.4482 27.0909 76.1072 26.2557 75.4254 25.6648C74.755 25.0739 73.8004 24.7784 72.5618 24.7784C71.255 24.7784 70.2152 25.0682 69.4425 25.6477C68.6697 26.2159 68.1584 26.9318 67.9084 27.7955L61.1925 27.25C61.5334 25.6591 62.2038 24.2841 63.2038 23.125C64.2038 21.9545 65.4936 21.0568 67.0732 20.4318C68.6641 19.7955 70.505 19.4773 72.5959 19.4773C74.0504 19.4773 75.4425 19.6477 76.772 19.9886C78.1129 20.3295 79.3004 20.858 80.3345 21.5739C81.38 22.2898 82.2038 23.2102 82.8061 24.3352C83.4084 25.4489 83.7095 26.7841 83.7095 28.3409V46H76.8232V42.3693H76.6186C76.1982 43.1875 75.6357 43.9091 74.9311 44.5341C74.2266 45.1477 73.38 45.6307 72.3913 45.983C71.4027 46.3239 70.2607 46.4943 68.9652 46.4943ZM71.0447 41.483C72.1129 41.483 73.0561 41.2727 73.8743 40.8523C74.6925 40.4205 75.3345 39.8409 75.8004 39.1136C76.2663 38.3864 76.4993 37.5625 76.4993 36.642V33.8636C76.272 34.0114 75.9595 34.1477 75.5618 34.2727C75.1754 34.3864 74.7379 34.4943 74.2493 34.5966C73.7607 34.6875 73.272 34.7727 72.7834 34.8523C72.2947 34.9205 71.8516 34.983 71.4538 35.0398C70.6016 35.1648 69.8572 35.3636 69.2209 35.6364C68.5845 35.9091 68.0902 36.2784 67.7379 36.7443C67.3857 37.1989 67.2095 37.767 67.2095 38.4489C67.2095 39.4375 67.5675 40.1932 68.2834 40.7159C69.0107 41.2273 69.9311 41.483 71.0447 41.483ZM96.6044 30.8636V46H89.343V19.8182H96.2635V24.4375H96.5703C97.1499 22.9148 98.1214 21.7102 99.4851 20.8239C100.849 19.9261 102.502 19.4773 104.445 19.4773C106.263 19.4773 107.849 19.875 109.201 20.6705C110.553 21.4659 111.604 22.6023 112.354 24.0795C113.104 25.5455 113.479 27.2955 113.479 29.3295V46H106.218V30.625C106.229 29.0227 105.82 27.7727 104.991 26.875C104.161 25.9659 103.019 25.5114 101.565 25.5114C100.587 25.5114 99.7237 25.7216 98.9737 26.142C98.2351 26.5625 97.6555 27.1761 97.2351 27.983C96.826 28.7784 96.6158 29.7386 96.6044 30.8636ZM128.85 46.4261C126.862 46.4261 125.06 45.9148 123.447 44.892C121.844 43.858 120.572 42.3409 119.629 40.3409C118.697 38.3295 118.231 35.8636 118.231 32.9432C118.231 29.9432 118.714 27.4489 119.68 25.4602C120.646 23.4602 121.93 21.9659 123.532 20.9773C125.146 19.9773 126.913 19.4773 128.833 19.4773C130.299 19.4773 131.521 19.7273 132.498 20.2273C133.487 20.7159 134.282 21.3295 134.884 22.0682C135.498 22.7955 135.964 23.5114 136.282 24.2159H136.504V11.0909H143.748V46H136.589V41.8068H136.282C135.941 42.5341 135.458 43.2557 134.833 43.9716C134.219 44.6761 133.418 45.2614 132.43 45.7273C131.452 46.1932 130.259 46.4261 128.85 46.4261ZM131.151 40.6477C132.322 40.6477 133.31 40.3295 134.117 39.6932C134.935 39.0455 135.56 38.142 135.992 36.983C136.435 35.8239 136.657 34.4659 136.657 32.9091C136.657 31.3523 136.441 30 136.009 28.8523C135.577 27.7045 134.952 26.8182 134.134 26.1932C133.316 25.5682 132.322 25.2557 131.151 25.2557C129.958 25.2557 128.952 25.5795 128.134 26.2273C127.316 26.875 126.697 27.7727 126.276 28.9205C125.856 30.0682 125.646 31.3977 125.646 32.9091C125.646 34.4318 125.856 35.7784 126.276 36.9489C126.708 38.108 127.327 39.017 128.134 39.6761C128.952 40.3239 129.958 40.6477 131.151 40.6477ZM160.964 11.0909H170.066L179.68 34.5455H180.089L189.702 11.0909H198.805V46H191.646V23.2784H191.356L182.322 45.8295H177.447L168.413 23.1932H168.123V46H160.964V11.0909ZM212.215 46.4943C210.545 46.4943 209.056 46.2045 207.749 45.625C206.442 45.0341 205.408 44.1648 204.647 43.017C203.897 41.858 203.522 40.4148 203.522 38.6875C203.522 37.233 203.789 36.0114 204.323 35.0227C204.857 34.0341 205.585 33.2386 206.505 32.6364C207.425 32.0341 208.471 31.5795 209.641 31.2727C210.823 30.9659 212.062 30.75 213.357 30.625C214.88 30.4659 216.107 30.3182 217.039 30.1818C217.971 30.0341 218.647 29.8182 219.067 29.5341C219.488 29.25 219.698 28.8295 219.698 28.2727V28.1705C219.698 27.0909 219.357 26.2557 218.675 25.6648C218.005 25.0739 217.05 24.7784 215.812 24.7784C214.505 24.7784 213.465 25.0682 212.692 25.6477C211.92 26.2159 211.408 26.9318 211.158 27.7955L204.442 27.25C204.783 25.6591 205.454 24.2841 206.454 23.125C207.454 21.9545 208.744 21.0568 210.323 20.4318C211.914 19.7955 213.755 19.4773 215.846 19.4773C217.3 19.4773 218.692 19.6477 220.022 19.9886C221.363 20.3295 222.55 20.858 223.585 21.5739C224.63 22.2898 225.454 23.2102 226.056 24.3352C226.658 25.4489 226.96 26.7841 226.96 28.3409V46H220.073V42.3693H219.869C219.448 43.1875 218.886 43.9091 218.181 44.5341C217.477 45.1477 216.63 45.6307 215.641 45.983C214.653 46.3239 213.511 46.4943 212.215 46.4943ZM214.295 41.483C215.363 41.483 216.306 41.2727 217.124 40.8523C217.942 40.4205 218.585 39.8409 219.05 39.1136C219.516 38.3864 219.749 37.5625 219.749 36.642V33.8636C219.522 34.0114 219.21 34.1477 218.812 34.2727C218.425 34.3864 217.988 34.4943 217.499 34.5966C217.011 34.6875 216.522 34.7727 216.033 34.8523C215.545 34.9205 215.102 34.983 214.704 35.0398C213.852 35.1648 213.107 35.3636 212.471 35.6364C211.835 35.9091 211.34 36.2784 210.988 36.7443C210.636 37.1989 210.46 37.767 210.46 38.4489C210.46 39.4375 210.817 40.1932 211.533 40.7159C212.261 41.2273 213.181 41.483 214.295 41.483ZM254.377 27.2841L247.729 27.6932C247.616 27.125 247.371 26.6136 246.996 26.1591C246.621 25.6932 246.127 25.3239 245.513 25.0511C244.911 24.767 244.19 24.625 243.349 24.625C242.224 24.625 241.275 24.8636 240.502 25.3409C239.729 25.8068 239.343 26.4318 239.343 27.2159C239.343 27.8409 239.593 28.3693 240.093 28.8011C240.593 29.233 241.451 29.5795 242.667 29.8409L247.406 30.7955C249.951 31.3182 251.849 32.1591 253.099 33.3182C254.349 34.4773 254.974 36 254.974 37.8864C254.974 39.6023 254.468 41.108 253.457 42.4034C252.457 43.6989 251.082 44.7102 249.332 45.4375C247.593 46.1534 245.587 46.5114 243.315 46.5114C239.849 46.5114 237.087 45.7898 235.031 44.3466C232.985 42.892 231.786 40.9148 231.434 38.4148L238.576 38.0398C238.792 39.0966 239.315 39.9034 240.144 40.4602C240.974 41.0057 242.036 41.2784 243.332 41.2784C244.604 41.2784 245.627 41.0341 246.4 40.5455C247.184 40.0455 247.582 39.4034 247.593 38.6193C247.582 37.9602 247.303 37.4205 246.758 37C246.212 36.5682 245.371 36.2386 244.235 36.0114L239.701 35.108C237.144 34.5966 235.241 33.7102 233.991 32.4489C232.752 31.1875 232.133 29.5795 232.133 27.625C232.133 25.9432 232.587 24.4943 233.496 23.2784C234.417 22.0625 235.707 21.125 237.366 20.4659C239.036 19.8068 240.991 19.4773 243.229 19.4773C246.536 19.4773 249.138 20.1761 251.036 21.5739C252.945 22.9716 254.059 24.875 254.377 27.2841ZM273.472 19.8182V25.2727H257.705V19.8182H273.472ZM261.285 13.5455H268.546V37.9545C268.546 38.625 268.648 39.1477 268.853 39.5227C269.058 39.8864 269.342 40.142 269.705 40.2898C270.08 40.4375 270.512 40.5114 271.001 40.5114C271.342 40.5114 271.683 40.483 272.023 40.4261C272.364 40.358 272.626 40.3068 272.808 40.2727L273.95 45.6761C273.586 45.7898 273.075 45.9205 272.415 46.0682C271.756 46.2273 270.955 46.3239 270.012 46.358C268.262 46.4261 266.728 46.1932 265.41 45.6591C264.103 45.125 263.086 44.2955 262.359 43.1705C261.631 42.0455 261.273 40.625 261.285 38.9091V13.5455ZM289.853 46.5114C287.16 46.5114 284.842 45.9659 282.898 44.875C280.967 43.7727 279.478 42.2159 278.433 40.2045C277.387 38.1818 276.864 35.7898 276.864 33.0284C276.864 30.3352 277.387 27.9716 278.433 25.9375C279.478 23.9034 280.95 22.3182 282.847 21.1818C284.756 20.0455 286.995 19.4773 289.563 19.4773C291.29 19.4773 292.898 19.7557 294.387 20.3125C295.887 20.858 297.194 21.6818 298.308 22.7841C299.433 23.8864 300.308 25.2727 300.933 26.9432C301.558 28.6023 301.87 30.5455 301.87 32.7727V34.767H279.762V30.267H295.035C295.035 29.2216 294.808 28.2955 294.353 27.4886C293.898 26.6818 293.268 26.0511 292.461 25.5966C291.665 25.1307 290.739 24.8977 289.683 24.8977C288.58 24.8977 287.603 25.1534 286.751 25.6648C285.91 26.1648 285.251 26.8409 284.773 27.6932C284.296 28.5341 284.052 29.4716 284.04 30.5057V34.7841C284.04 36.0795 284.279 37.1989 284.756 38.142C285.245 39.0852 285.933 39.8125 286.819 40.3239C287.705 40.8352 288.756 41.0909 289.972 41.0909C290.779 41.0909 291.518 40.9773 292.188 40.75C292.859 40.5227 293.433 40.1818 293.91 39.7273C294.387 39.2727 294.751 38.7159 295.001 38.0568L301.717 38.5C301.376 40.1136 300.677 41.5227 299.62 42.7273C298.575 43.9205 297.222 44.8523 295.563 45.5227C293.915 46.1818 292.012 46.5114 289.853 46.5114ZM306.609 46V19.8182H313.648V24.3864H313.921C314.398 22.7614 315.2 21.5341 316.325 20.7045C317.45 19.8636 318.745 19.4432 320.211 19.4432C320.575 19.4432 320.967 19.4659 321.387 19.5114C321.808 19.5568 322.177 19.6193 322.495 19.6989V26.142C322.154 26.0398 321.683 25.9489 321.08 25.8693C320.478 25.7898 319.927 25.75 319.427 25.75C318.359 25.75 317.404 25.983 316.563 26.4489C315.734 26.9034 315.075 27.5398 314.586 28.358C314.109 29.1761 313.87 30.1193 313.87 31.1875V46H306.609ZM348.033 27.2841L341.386 27.6932C341.272 27.125 341.028 26.6136 340.653 26.1591C340.278 25.6932 339.783 25.3239 339.17 25.0511C338.567 24.767 337.846 24.625 337.005 24.625C335.88 24.625 334.931 24.8636 334.158 25.3409C333.386 25.8068 332.999 26.4318 332.999 27.2159C332.999 27.8409 333.249 28.3693 333.749 28.8011C334.249 29.233 335.107 29.5795 336.323 29.8409L341.062 30.7955C343.607 31.3182 345.505 32.1591 346.755 33.3182C348.005 34.4773 348.63 36 348.63 37.8864C348.63 39.6023 348.124 41.108 347.113 42.4034C346.113 43.6989 344.738 44.7102 342.988 45.4375C341.249 46.1534 339.244 46.5114 336.971 46.5114C333.505 46.5114 330.744 45.7898 328.687 44.3466C326.641 42.892 325.442 40.9148 325.09 38.4148L332.232 38.0398C332.448 39.0966 332.971 39.9034 333.8 40.4602C334.63 41.0057 335.692 41.2784 336.988 41.2784C338.261 41.2784 339.283 41.0341 340.056 40.5455C340.84 40.0455 341.238 39.4034 341.249 38.6193C341.238 37.9602 340.96 37.4205 340.414 37C339.869 36.5682 339.028 36.2386 337.891 36.0114L333.357 35.108C330.8 34.5966 328.897 33.7102 327.647 32.4489C326.408 31.1875 325.789 29.5795 325.789 27.625C325.789 25.9432 326.244 24.4943 327.153 23.2784C328.073 22.0625 329.363 21.125 331.022 20.4659C332.692 19.8068 334.647 19.4773 336.886 19.4773C340.192 19.4773 342.795 20.1761 344.692 21.5739C346.602 22.9716 347.715 24.875 348.033 27.2841ZM395.249 23.3125H387.783C387.647 22.3466 387.369 21.4886 386.948 20.7386C386.528 19.9773 385.988 19.3295 385.329 18.7955C384.67 18.2614 383.908 17.8523 383.045 17.5682C382.192 17.2841 381.266 17.142 380.266 17.142C378.46 17.142 376.886 17.5909 375.545 18.4886C374.204 19.375 373.164 20.6705 372.425 22.375C371.687 24.0682 371.317 26.125 371.317 28.5455C371.317 31.0341 371.687 33.125 372.425 34.8182C373.175 36.5114 374.221 37.7898 375.562 38.6534C376.903 39.517 378.454 39.9489 380.215 39.9489C381.204 39.9489 382.119 39.8182 382.96 39.5568C383.812 39.2955 384.567 38.9148 385.227 38.4148C385.886 37.9034 386.431 37.2841 386.863 36.5568C387.306 35.8295 387.613 35 387.783 34.0682L395.249 34.1023C395.056 35.7045 394.573 37.25 393.8 38.7386C393.039 40.2159 392.011 41.5398 390.715 42.7102C389.431 43.8693 387.897 44.7898 386.113 45.4716C384.34 46.142 382.335 46.4773 380.096 46.4773C376.982 46.4773 374.198 45.7727 371.744 44.3636C369.3 42.9545 367.369 40.9148 365.948 38.2443C364.539 35.5739 363.835 32.3409 363.835 28.5455C363.835 24.7386 364.55 21.5 365.982 18.8295C367.414 16.1591 369.357 14.125 371.812 12.7273C374.266 11.3182 377.028 10.6136 380.096 10.6136C382.119 10.6136 383.994 10.8977 385.721 11.4659C387.46 12.0341 388.999 12.8636 390.34 13.9545C391.681 15.0341 392.772 16.358 393.613 17.9261C394.465 19.4943 395.011 21.2898 395.249 23.3125ZM407.667 30.8636V46H400.406V11.0909H407.462V24.4375H407.769C408.36 22.892 409.315 21.6818 410.633 20.8068C411.951 19.9205 413.604 19.4773 415.593 19.4773C417.411 19.4773 418.996 19.875 420.349 20.6705C421.712 21.4545 422.769 22.5852 423.519 24.0625C424.281 25.5284 424.656 27.2841 424.644 29.3295V46H417.383V30.625C417.394 29.0114 416.985 27.7557 416.156 26.858C415.337 25.9602 414.19 25.5114 412.712 25.5114C411.724 25.5114 410.849 25.7216 410.087 26.142C409.337 26.5625 408.746 27.1761 408.315 27.983C407.894 28.7784 407.678 29.7386 407.667 30.8636ZM437.825 46.4943C436.154 46.4943 434.665 46.2045 433.359 45.625C432.052 45.0341 431.018 44.1648 430.256 43.017C429.506 41.858 429.131 40.4148 429.131 38.6875C429.131 37.233 429.398 36.0114 429.933 35.0227C430.467 34.0341 431.194 33.2386 432.114 32.6364C433.035 32.0341 434.08 31.5795 435.251 31.2727C436.433 30.9659 437.671 30.75 438.967 30.625C440.489 30.4659 441.717 30.3182 442.648 30.1818C443.58 30.0341 444.256 29.8182 444.677 29.5341C445.097 29.25 445.308 28.8295 445.308 28.2727V28.1705C445.308 27.0909 444.967 26.2557 444.285 25.6648C443.614 25.0739 442.66 24.7784 441.421 24.7784C440.114 24.7784 439.075 25.0682 438.302 25.6477C437.529 26.2159 437.018 26.9318 436.768 27.7955L430.052 27.25C430.393 25.6591 431.063 24.2841 432.063 23.125C433.063 21.9545 434.353 21.0568 435.933 20.4318C437.523 19.7955 439.364 19.4773 441.455 19.4773C442.91 19.4773 444.302 19.6477 445.631 19.9886C446.972 20.3295 448.16 20.858 449.194 21.5739C450.239 22.2898 451.063 23.2102 451.665 24.3352C452.268 25.4489 452.569 26.7841 452.569 28.3409V46H445.683V42.3693H445.478C445.058 43.1875 444.495 43.9091 443.79 44.5341C443.086 45.1477 442.239 45.6307 441.251 45.983C440.262 46.3239 439.12 46.4943 437.825 46.4943ZM439.904 41.483C440.972 41.483 441.915 41.2727 442.734 40.8523C443.552 40.4205 444.194 39.8409 444.66 39.1136C445.126 38.3864 445.359 37.5625 445.359 36.642V33.8636C445.131 34.0114 444.819 34.1477 444.421 34.2727C444.035 34.3864 443.597 34.4943 443.109 34.5966C442.62 34.6875 442.131 34.7727 441.643 34.8523C441.154 34.9205 440.711 34.983 440.313 35.0398C439.461 35.1648 438.717 35.3636 438.08 35.6364C437.444 35.9091 436.95 36.2784 436.597 36.7443C436.245 37.1989 436.069 37.767 436.069 38.4489C436.069 39.4375 436.427 40.1932 437.143 40.7159C437.87 41.2273 438.79 41.483 439.904 41.483ZM458.202 46V19.8182H465.123V24.4375H465.43C465.975 22.9034 466.884 21.6932 468.157 20.8068C469.43 19.9205 470.952 19.4773 472.725 19.4773C474.521 19.4773 476.049 19.9261 477.31 20.8239C478.572 21.7102 479.413 22.9148 479.833 24.4375H480.106C480.64 22.9375 481.606 21.7386 483.004 20.8409C484.413 19.9318 486.077 19.4773 487.998 19.4773C490.441 19.4773 492.424 20.2557 493.947 21.8125C495.481 23.358 496.248 25.5511 496.248 28.392V46H489.004V29.8239C489.004 28.3693 488.617 27.2784 487.844 26.5511C487.072 25.8239 486.106 25.4602 484.947 25.4602C483.629 25.4602 482.6 25.8807 481.862 26.7216C481.123 27.5511 480.754 28.6477 480.754 30.0114V46H473.714V29.6705C473.714 28.3864 473.344 27.3636 472.606 26.6023C471.879 25.8409 470.918 25.4602 469.725 25.4602C468.918 25.4602 468.191 25.6648 467.543 26.0739C466.907 26.4716 466.401 27.0341 466.026 27.7614C465.651 28.4773 465.464 29.3182 465.464 30.2841V46H458.202ZM501.984 55.8182V19.8182H509.143V24.2159H509.467C509.785 23.5114 510.245 22.7955 510.847 22.0682C511.461 21.3295 512.256 20.7159 513.234 20.2273C514.222 19.7273 515.45 19.4773 516.915 19.4773C518.825 19.4773 520.586 19.9773 522.2 20.9773C523.813 21.9659 525.103 23.4602 526.069 25.4602C527.035 27.4489 527.518 29.9432 527.518 32.9432C527.518 35.8636 527.046 38.3295 526.103 40.3409C525.171 42.3409 523.898 43.858 522.285 44.892C520.683 45.9148 518.887 46.4261 516.898 46.4261C515.489 46.4261 514.29 46.1932 513.302 45.7273C512.325 45.2614 511.523 44.6761 510.898 43.9716C510.273 43.2557 509.796 42.5341 509.467 41.8068H509.245V55.8182H501.984ZM509.092 32.9091C509.092 34.4659 509.308 35.8239 509.739 36.983C510.171 38.142 510.796 39.0455 511.614 39.6932C512.433 40.3295 513.427 40.6477 514.597 40.6477C515.779 40.6477 516.779 40.3239 517.597 39.6761C518.415 39.017 519.035 38.108 519.455 36.9489C519.887 35.7784 520.103 34.4318 520.103 32.9091C520.103 31.3977 519.893 30.0682 519.472 28.9205C519.052 27.7727 518.433 26.875 517.614 26.2273C516.796 25.5795 515.79 25.2557 514.597 25.2557C513.415 25.2557 512.415 25.5682 511.597 26.1932C510.79 26.8182 510.171 27.7045 509.739 28.8523C509.308 30 509.092 31.3523 509.092 32.9091ZM532.359 46V19.8182H539.62V46H532.359ZM536.006 16.4432C534.927 16.4432 534.001 16.0852 533.228 15.3693C532.467 14.642 532.086 13.7727 532.086 12.7614C532.086 11.7614 532.467 10.9034 533.228 10.1875C534.001 9.46023 534.927 9.09659 536.006 9.09659C537.086 9.09659 538.006 9.46023 538.768 10.1875C539.54 10.9034 539.927 11.7614 539.927 12.7614C539.927 13.7727 539.54 14.642 538.768 15.3693C538.006 16.0852 537.086 16.4432 536.006 16.4432ZM557.266 46.5114C554.619 46.5114 552.329 45.9489 550.397 44.8239C548.477 43.6875 546.994 42.108 545.948 40.0852C544.903 38.0511 544.38 35.6932 544.38 33.0114C544.38 30.3068 544.903 27.9432 545.948 25.9205C546.994 23.8864 548.477 22.3068 550.397 21.1818C552.329 20.0455 554.619 19.4773 557.266 19.4773C559.914 19.4773 562.198 20.0455 564.119 21.1818C566.05 22.3068 567.539 23.8864 568.585 25.9205C569.63 27.9432 570.153 30.3068 570.153 33.0114C570.153 35.6932 569.63 38.0511 568.585 40.0852C567.539 42.108 566.05 43.6875 564.119 44.8239C562.198 45.9489 559.914 46.5114 557.266 46.5114ZM557.3 40.8864C558.505 40.8864 559.511 40.5455 560.317 39.8636C561.124 39.1705 561.732 38.2273 562.141 37.0341C562.562 35.8409 562.772 34.483 562.772 32.9602C562.772 31.4375 562.562 30.0795 562.141 28.8864C561.732 27.6932 561.124 26.75 560.317 26.0568C559.511 25.3636 558.505 25.017 557.3 25.017C556.085 25.017 555.062 25.3636 554.232 26.0568C553.414 26.75 552.795 27.6932 552.374 28.8864C551.965 30.0795 551.761 31.4375 551.761 32.9602C551.761 34.483 551.965 35.8409 552.374 37.0341C552.795 38.2273 553.414 39.1705 554.232 39.8636C555.062 40.5455 556.085 40.8864 557.3 40.8864ZM582.136 30.8636V46H574.874V19.8182H581.795V24.4375H582.102C582.681 22.9148 583.653 21.7102 585.016 20.8239C586.38 19.9261 588.033 19.4773 589.977 19.4773C591.795 19.4773 593.38 19.875 594.732 20.6705C596.085 21.4659 597.136 22.6023 597.886 24.0795C598.636 25.5455 599.011 27.2955 599.011 29.3295V46H591.749V30.625C591.761 29.0227 591.352 27.7727 590.522 26.875C589.692 25.9659 588.55 25.5114 587.096 25.5114C586.119 25.5114 585.255 25.7216 584.505 26.142C583.766 26.5625 583.187 27.1761 582.766 27.983C582.357 28.7784 582.147 29.7386 582.136 30.8636ZM634.917 21.1307C634.781 19.7557 634.195 18.6875 633.161 17.9261C632.127 17.1648 630.724 16.7841 628.951 16.7841C627.746 16.7841 626.729 16.9545 625.9 17.2955C625.07 17.625 624.434 18.0852 623.991 18.6761C623.559 19.267 623.343 19.9375 623.343 20.6875C623.32 21.3125 623.451 21.858 623.735 22.3239C624.031 22.7898 624.434 23.1932 624.945 23.5341C625.457 23.8636 626.048 24.1534 626.718 24.4034C627.388 24.642 628.104 24.8466 628.866 25.017L632.002 25.767C633.525 26.108 634.923 26.5625 636.195 27.1307C637.468 27.6989 638.57 28.3977 639.502 29.2273C640.434 30.0568 641.156 31.0341 641.667 32.1591C642.19 33.2841 642.457 34.5739 642.468 36.0284C642.457 38.1648 641.911 40.017 640.832 41.5852C639.763 43.142 638.218 44.3523 636.195 45.2159C634.184 46.0682 631.758 46.4943 628.917 46.4943C626.099 46.4943 623.644 46.0625 621.553 45.1989C619.474 44.3352 617.849 43.0568 616.678 41.3636C615.519 39.6591 614.911 37.5511 614.854 35.0398H621.996C622.076 36.2102 622.411 37.1875 623.002 37.9716C623.604 38.7443 624.406 39.3295 625.406 39.7273C626.417 40.1136 627.559 40.3068 628.832 40.3068C630.082 40.3068 631.167 40.125 632.087 39.7614C633.019 39.3977 633.741 38.892 634.252 38.2443C634.763 37.5966 635.019 36.8523 635.019 36.0114C635.019 35.2273 634.786 34.5682 634.32 34.0341C633.866 33.5 633.195 33.0455 632.309 32.6705C631.434 32.2955 630.36 31.9545 629.087 31.6477L625.286 30.6932C622.343 29.9773 620.019 28.858 618.315 27.3352C616.61 25.8125 615.763 23.7614 615.775 21.1818C615.763 19.0682 616.326 17.2216 617.462 15.642C618.61 14.0625 620.184 12.8295 622.184 11.9432C624.184 11.0568 626.457 10.6136 629.002 10.6136C631.593 10.6136 633.854 11.0568 635.786 11.9432C637.729 12.8295 639.241 14.0625 640.32 15.642C641.4 17.2216 641.957 19.0511 641.991 21.1307H634.917ZM654.558 30.8636V46H647.296V11.0909H654.353V24.4375H654.66C655.251 22.892 656.205 21.6818 657.523 20.8068C658.842 19.9205 660.495 19.4773 662.484 19.4773C664.302 19.4773 665.887 19.875 667.239 20.6705C668.603 21.4545 669.66 22.5852 670.41 24.0625C671.171 25.5284 671.546 27.2841 671.535 29.3295V46H664.273V30.625C664.285 29.0114 663.876 27.7557 663.046 26.858C662.228 25.9602 661.08 25.5114 659.603 25.5114C658.614 25.5114 657.739 25.7216 656.978 26.142C656.228 26.5625 655.637 27.1761 655.205 27.983C654.785 28.7784 654.569 29.7386 654.558 30.8636ZM677.249 46V19.8182H684.511V46H677.249ZM680.897 16.4432C679.817 16.4432 678.891 16.0852 678.119 15.3693C677.357 14.642 676.977 13.7727 676.977 12.7614C676.977 11.7614 677.357 10.9034 678.119 10.1875C678.891 9.46023 679.817 9.09659 680.897 9.09659C681.977 9.09659 682.897 9.46023 683.658 10.1875C684.431 10.9034 684.817 11.7614 684.817 12.7614C684.817 13.7727 684.431 14.642 683.658 15.3693C682.897 16.0852 681.977 16.4432 680.897 16.4432ZM690.327 55.8182V19.8182H697.487V24.2159H697.81C698.129 23.5114 698.589 22.7955 699.191 22.0682C699.805 21.3295 700.6 20.7159 701.577 20.2273C702.566 19.7273 703.793 19.4773 705.259 19.4773C707.168 19.4773 708.93 19.9773 710.543 20.9773C712.157 21.9659 713.447 23.4602 714.413 25.4602C715.379 27.4489 715.862 29.9432 715.862 32.9432C715.862 35.8636 715.39 38.3295 714.447 40.3409C713.515 42.3409 712.242 43.858 710.629 44.892C709.026 45.9148 707.231 46.4261 705.242 46.4261C703.833 46.4261 702.634 46.1932 701.646 45.7273C700.668 45.2614 699.867 44.6761 699.242 43.9716C698.617 43.2557 698.14 42.5341 697.81 41.8068H697.589V55.8182H690.327ZM697.435 32.9091C697.435 34.4659 697.651 35.8239 698.083 36.983C698.515 38.142 699.14 39.0455 699.958 39.6932C700.776 40.3295 701.771 40.6477 702.941 40.6477C704.123 40.6477 705.123 40.3239 705.941 39.6761C706.759 39.017 707.379 38.108 707.799 36.9489C708.231 35.7784 708.447 34.4318 708.447 32.9091C708.447 31.3977 708.237 30.0682 707.816 28.9205C707.396 27.7727 706.776 26.875 705.958 26.2273C705.14 25.5795 704.134 25.2557 702.941 25.2557C701.759 25.2557 700.759 25.5682 699.941 26.1932C699.134 26.8182 698.515 27.7045 698.083 28.8523C697.651 30 697.435 31.3523 697.435 32.9091Z" fill="black"/>
<path d="M32.3771 22.375C32.1385 21.5455 31.8033 20.8125 31.3715 20.1761C30.9396 19.5284 30.4112 18.983 29.7862 18.5398C29.1726 18.0852 28.468 17.7386 27.6726 17.5C26.8885 17.2614 26.0192 17.142 25.0646 17.142C23.2805 17.142 21.7124 17.5852 20.3601 18.4716C19.0192 19.358 17.9737 20.6477 17.2237 22.3409C16.4737 24.0227 16.0987 26.0795 16.0987 28.5114C16.0987 30.9432 16.468 33.0114 17.2067 34.7159C17.9453 36.4205 18.9908 37.7216 20.343 38.6193C21.6953 39.5057 23.2919 39.9489 25.1328 39.9489C26.8033 39.9489 28.2294 39.6534 29.4112 39.0625C30.6044 38.4602 31.5135 37.6136 32.1385 36.5227C32.7749 35.4318 33.093 34.142 33.093 32.6534L34.593 32.875H25.593V27.3182H40.201V31.7159C40.201 34.7841 39.5533 37.4205 38.2578 39.625C36.9624 41.8182 35.1783 43.5114 32.9055 44.7045C30.6328 45.8864 28.0305 46.4773 25.0987 46.4773C21.826 46.4773 18.951 45.7557 16.4737 44.3125C13.9964 42.858 12.0646 40.7955 10.6783 38.125C9.30327 35.4432 8.61577 32.2614 8.61577 28.5795C8.61577 25.75 9.02486 23.2273 9.84304 21.0114C10.6726 18.7841 11.8317 16.8977 13.3203 15.3523C14.8089 13.8068 16.5419 12.6307 18.5192 11.8239C20.4964 11.017 22.6385 10.6136 24.9453 10.6136C26.9226 10.6136 28.7635 10.9034 30.468 11.483C32.1726 12.0511 33.6839 12.858 35.0021 13.9034C36.3317 14.9489 37.4169 16.1932 38.2578 17.6364C39.0987 19.0682 39.6385 20.6477 39.8771 22.375H32.3771ZM45.6087 46V19.8182H52.6484V24.3864H52.9212C53.3984 22.7614 54.1996 21.5341 55.3246 20.7045C56.4496 19.8636 57.745 19.4432 59.2109 19.4432C59.5746 19.4432 59.9666 19.4659 60.3871 19.5114C60.8075 19.5568 61.1768 19.6193 61.495 19.6989V26.142C61.1541 26.0398 60.6825 25.9489 60.0803 25.8693C59.478 25.7898 58.9268 25.75 58.4268 25.75C57.3587 25.75 56.4041 25.983 55.5632 26.4489C54.7337 26.9034 54.0746 27.5398 53.5859 28.358C53.1087 29.1761 52.87 30.1193 52.87 31.1875V46H45.6087ZM71.9652 46.4943C70.2947 46.4943 68.8061 46.2045 67.4993 45.625C66.1925 45.0341 65.1584 44.1648 64.397 43.017C63.647 41.858 63.272 40.4148 63.272 38.6875C63.272 37.233 63.5391 36.0114 64.0732 35.0227C64.6072 34.0341 65.3345 33.2386 66.255 32.6364C67.1754 32.0341 68.2209 31.5795 69.3913 31.2727C70.5732 30.9659 71.8118 30.75 73.1072 30.625C74.63 30.4659 75.8572 30.3182 76.7891 30.1818C77.7209 30.0341 78.397 29.8182 78.8175 29.5341C79.2379 29.25 79.4482 28.8295 79.4482 28.2727V28.1705C79.4482 27.0909 79.1072 26.2557 78.4254 25.6648C77.755 25.0739 76.8004 24.7784 75.5618 24.7784C74.255 24.7784 73.2152 25.0682 72.4425 25.6477C71.6697 26.2159 71.1584 26.9318 70.9084 27.7955L64.1925 27.25C64.5334 25.6591 65.2038 24.2841 66.2038 23.125C67.2038 21.9545 68.4936 21.0568 70.0732 20.4318C71.6641 19.7955 73.505 19.4773 75.5959 19.4773C77.0504 19.4773 78.4425 19.6477 79.772 19.9886C81.1129 20.3295 82.3004 20.858 83.3345 21.5739C84.38 22.2898 85.2038 23.2102 85.8061 24.3352C86.4084 25.4489 86.7095 26.7841 86.7095 28.3409V46H79.8232V42.3693H79.6186C79.1982 43.1875 78.6357 43.9091 77.9311 44.5341C77.2266 45.1477 76.38 45.6307 75.3913 45.983C74.4027 46.3239 73.2607 46.4943 71.9652 46.4943ZM74.0447 41.483C75.1129 41.483 76.0561 41.2727 76.8743 40.8523C77.6925 40.4205 78.3345 39.8409 78.8004 39.1136C79.2663 38.3864 79.4993 37.5625 79.4993 36.642V33.8636C79.272 34.0114 78.9595 34.1477 78.5618 34.2727C78.1754 34.3864 77.7379 34.4943 77.2493 34.5966C76.7607 34.6875 76.272 34.7727 75.7834 34.8523C75.2947 34.9205 74.8516 34.983 74.4538 35.0398C73.6016 35.1648 72.8572 35.3636 72.2209 35.6364C71.5845 35.9091 71.0902 36.2784 70.7379 36.7443C70.3857 37.1989 70.2095 37.767 70.2095 38.4489C70.2095 39.4375 70.5675 40.1932 71.2834 40.7159C72.0107 41.2273 72.9311 41.483 74.0447 41.483ZM99.6044 30.8636V46H92.343V19.8182H99.2635V24.4375H99.5703C100.15 22.9148 101.121 21.7102 102.485 20.8239C103.849 19.9261 105.502 19.4773 107.445 19.4773C109.263 19.4773 110.849 19.875 112.201 20.6705C113.553 21.4659 114.604 22.6023 115.354 24.0795C116.104 25.5455 116.479 27.2955 116.479 29.3295V46H109.218V30.625C109.229 29.0227 108.82 27.7727 107.991 26.875C107.161 25.9659 106.019 25.5114 104.565 25.5114C103.587 25.5114 102.724 25.7216 101.974 26.142C101.235 26.5625 100.656 27.1761 100.235 27.983C99.826 28.7784 99.6158 29.7386 99.6044 30.8636ZM131.85 46.4261C129.862 46.4261 128.06 45.9148 126.447 44.892C124.844 43.858 123.572 42.3409 122.629 40.3409C121.697 38.3295 121.231 35.8636 121.231 32.9432C121.231 29.9432 121.714 27.4489 122.68 25.4602C123.646 23.4602 124.93 21.9659 126.532 20.9773C128.146 19.9773 129.913 19.4773 131.833 19.4773C133.299 19.4773 134.521 19.7273 135.498 20.2273C136.487 20.7159 137.282 21.3295 137.884 22.0682C138.498 22.7955 138.964 23.5114 139.282 24.2159H139.504V11.0909H146.748V46H139.589V41.8068H139.282C138.941 42.5341 138.458 43.2557 137.833 43.9716C137.219 44.6761 136.418 45.2614 135.43 45.7273C134.452 46.1932 133.259 46.4261 131.85 46.4261ZM134.151 40.6477C135.322 40.6477 136.31 40.3295 137.117 39.6932C137.935 39.0455 138.56 38.142 138.992 36.983C139.435 35.8239 139.657 34.4659 139.657 32.9091C139.657 31.3523 139.441 30 139.009 28.8523C138.577 27.7045 137.952 26.8182 137.134 26.1932C136.316 25.5682 135.322 25.2557 134.151 25.2557C132.958 25.2557 131.952 25.5795 131.134 26.2273C130.316 26.875 129.697 27.7727 129.276 28.9205C128.856 30.0682 128.646 31.3977 128.646 32.9091C128.646 34.4318 128.856 35.7784 129.276 36.9489C129.708 38.108 130.327 39.017 131.134 39.6761C131.952 40.3239 132.958 40.6477 134.151 40.6477ZM163.964 11.0909H173.066L182.68 34.5455H183.089L192.702 11.0909H201.805V46H194.646V23.2784H194.356L185.322 45.8295H180.447L171.413 23.1932H171.123V46H163.964V11.0909ZM215.215 46.4943C213.545 46.4943 212.056 46.2045 210.749 45.625C209.442 45.0341 208.408 44.1648 207.647 43.017C206.897 41.858 206.522 40.4148 206.522 38.6875C206.522 37.233 206.789 36.0114 207.323 35.0227C207.857 34.0341 208.585 33.2386 209.505 32.6364C210.425 32.0341 211.471 31.5795 212.641 31.2727C213.823 30.9659 215.062 30.75 216.357 30.625C217.88 30.4659 219.107 30.3182 220.039 30.1818C220.971 30.0341 221.647 29.8182 222.067 29.5341C222.488 29.25 222.698 28.8295 222.698 28.2727V28.1705C222.698 27.0909 222.357 26.2557 221.675 25.6648C221.005 25.0739 220.05 24.7784 218.812 24.7784C217.505 24.7784 216.465 25.0682 215.692 25.6477C214.92 26.2159 214.408 26.9318 214.158 27.7955L207.442 27.25C207.783 25.6591 208.454 24.2841 209.454 23.125C210.454 21.9545 211.744 21.0568 213.323 20.4318C214.914 19.7955 216.755 19.4773 218.846 19.4773C220.3 19.4773 221.692 19.6477 223.022 19.9886C224.363 20.3295 225.55 20.858 226.585 21.5739C227.63 22.2898 228.454 23.2102 229.056 24.3352C229.658 25.4489 229.96 26.7841 229.96 28.3409V46H223.073V42.3693H222.869C222.448 43.1875 221.886 43.9091 221.181 44.5341C220.477 45.1477 219.63 45.6307 218.641 45.983C217.653 46.3239 216.511 46.4943 215.215 46.4943ZM217.295 41.483C218.363 41.483 219.306 41.2727 220.124 40.8523C220.942 40.4205 221.585 39.8409 222.05 39.1136C222.516 38.3864 222.749 37.5625 222.749 36.642V33.8636C222.522 34.0114 222.21 34.1477 221.812 34.2727C221.425 34.3864 220.988 34.4943 220.499 34.5966C220.011 34.6875 219.522 34.7727 219.033 34.8523C218.545 34.9205 218.102 34.983 217.704 35.0398C216.852 35.1648 216.107 35.3636 215.471 35.6364C214.835 35.9091 214.34 36.2784 213.988 36.7443C213.636 37.1989 213.46 37.767 213.46 38.4489C213.46 39.4375 213.817 40.1932 214.533 40.7159C215.261 41.2273 216.181 41.483 217.295 41.483ZM257.377 27.2841L250.729 27.6932C250.616 27.125 250.371 26.6136 249.996 26.1591C249.621 25.6932 249.127 25.3239 248.513 25.0511C247.911 24.767 247.19 24.625 246.349 24.625C245.224 24.625 244.275 24.8636 243.502 25.3409C242.729 25.8068 242.343 26.4318 242.343 27.2159C242.343 27.8409 242.593 28.3693 243.093 28.8011C243.593 29.233 244.451 29.5795 245.667 29.8409L250.406 30.7955C252.951 31.3182 254.849 32.1591 256.099 33.3182C257.349 34.4773 257.974 36 257.974 37.8864C257.974 39.6023 257.468 41.108 256.457 42.4034C255.457 43.6989 254.082 44.7102 252.332 45.4375C250.593 46.1534 248.587 46.5114 246.315 46.5114C242.849 46.5114 240.087 45.7898 238.031 44.3466C235.985 42.892 234.786 40.9148 234.434 38.4148L241.576 38.0398C241.792 39.0966 242.315 39.9034 243.144 40.4602C243.974 41.0057 245.036 41.2784 246.332 41.2784C247.604 41.2784 248.627 41.0341 249.4 40.5455C250.184 40.0455 250.582 39.4034 250.593 38.6193C250.582 37.9602 250.303 37.4205 249.758 37C249.212 36.5682 248.371 36.2386 247.235 36.0114L242.701 35.108C240.144 34.5966 238.241 33.7102 236.991 32.4489C235.752 31.1875 235.133 29.5795 235.133 27.625C235.133 25.9432 235.587 24.4943 236.496 23.2784C237.417 22.0625 238.707 21.125 240.366 20.4659C242.036 19.8068 243.991 19.4773 246.229 19.4773C249.536 19.4773 252.138 20.1761 254.036 21.5739C255.945 22.9716 257.059 24.875 257.377 27.2841ZM276.472 19.8182V25.2727H260.705V19.8182H276.472ZM264.285 13.5455H271.546V37.9545C271.546 38.625 271.648 39.1477 271.853 39.5227C272.058 39.8864 272.342 40.142 272.705 40.2898C273.08 40.4375 273.512 40.5114 274.001 40.5114C274.342 40.5114 274.683 40.483 275.023 40.4261C275.364 40.358 275.626 40.3068 275.808 40.2727L276.95 45.6761C276.586 45.7898 276.075 45.9205 275.415 46.0682C274.756 46.2273 273.955 46.3239 273.012 46.358C271.262 46.4261 269.728 46.1932 268.41 45.6591C267.103 45.125 266.086 44.2955 265.359 43.1705C264.631 42.0455 264.273 40.625 264.285 38.9091V13.5455ZM292.853 46.5114C290.16 46.5114 287.842 45.9659 285.898 44.875C283.967 43.7727 282.478 42.2159 281.433 40.2045C280.387 38.1818 279.864 35.7898 279.864 33.0284C279.864 30.3352 280.387 27.9716 281.433 25.9375C282.478 23.9034 283.95 22.3182 285.847 21.1818C287.756 20.0455 289.995 19.4773 292.563 19.4773C294.29 19.4773 295.898 19.7557 297.387 20.3125C298.887 20.858 300.194 21.6818 301.308 22.7841C302.433 23.8864 303.308 25.2727 303.933 26.9432C304.558 28.6023 304.87 30.5455 304.87 32.7727V34.767H282.762V30.267H298.035C298.035 29.2216 297.808 28.2955 297.353 27.4886C296.898 26.6818 296.268 26.0511 295.461 25.5966C294.665 25.1307 293.739 24.8977 292.683 24.8977C291.58 24.8977 290.603 25.1534 289.751 25.6648C288.91 26.1648 288.251 26.8409 287.773 27.6932C287.296 28.5341 287.052 29.4716 287.04 30.5057V34.7841C287.04 36.0795 287.279 37.1989 287.756 38.142C288.245 39.0852 288.933 39.8125 289.819 40.3239C290.705 40.8352 291.756 41.0909 292.972 41.0909C293.779 41.0909 294.518 40.9773 295.188 40.75C295.859 40.5227 296.433 40.1818 296.91 39.7273C297.387 39.2727 297.751 38.7159 298.001 38.0568L304.717 38.5C304.376 40.1136 303.677 41.5227 302.62 42.7273C301.575 43.9205 300.222 44.8523 298.563 45.5227C296.915 46.1818 295.012 46.5114 292.853 46.5114ZM309.609 46V19.8182H316.648V24.3864H316.921C317.398 22.7614 318.2 21.5341 319.325 20.7045C320.45 19.8636 321.745 19.4432 323.211 19.4432C323.575 19.4432 323.967 19.4659 324.387 19.5114C324.808 19.5568 325.177 19.6193 325.495 19.6989V26.142C325.154 26.0398 324.683 25.9489 324.08 25.8693C323.478 25.7898 322.927 25.75 322.427 25.75C321.359 25.75 320.404 25.983 319.563 26.4489C318.734 26.9034 318.075 27.5398 317.586 28.358C317.109 29.1761 316.87 30.1193 316.87 31.1875V46H309.609ZM351.033 27.2841L344.386 27.6932C344.272 27.125 344.028 26.6136 343.653 26.1591C343.278 25.6932 342.783 25.3239 342.17 25.0511C341.567 24.767 340.846 24.625 340.005 24.625C338.88 24.625 337.931 24.8636 337.158 25.3409C336.386 25.8068 335.999 26.4318 335.999 27.2159C335.999 27.8409 336.249 28.3693 336.749 28.8011C337.249 29.233 338.107 29.5795 339.323 29.8409L344.062 30.7955C346.607 31.3182 348.505 32.1591 349.755 33.3182C351.005 34.4773 351.63 36 351.63 37.8864C351.63 39.6023 351.124 41.108 350.113 42.4034C349.113 43.6989 347.738 44.7102 345.988 45.4375C344.249 46.1534 342.244 46.5114 339.971 46.5114C336.505 46.5114 333.744 45.7898 331.687 44.3466C329.641 42.892 328.442 40.9148 328.09 38.4148L335.232 38.0398C335.448 39.0966 335.971 39.9034 336.8 40.4602C337.63 41.0057 338.692 41.2784 339.988 41.2784C341.261 41.2784 342.283 41.0341 343.056 40.5455C343.84 40.0455 344.238 39.4034 344.249 38.6193C344.238 37.9602 343.96 37.4205 343.414 37C342.869 36.5682 342.028 36.2386 340.891 36.0114L336.357 35.108C333.8 34.5966 331.897 33.7102 330.647 32.4489C329.408 31.1875 328.789 29.5795 328.789 27.625C328.789 25.9432 329.244 24.4943 330.153 23.2784C331.073 22.0625 332.363 21.125 334.022 20.4659C335.692 19.8068 337.647 19.4773 339.886 19.4773C343.192 19.4773 345.795 20.1761 347.692 21.5739C349.602 22.9716 350.715 24.875 351.033 27.2841ZM398.249 23.3125H390.783C390.647 22.3466 390.369 21.4886 389.948 20.7386C389.528 19.9773 388.988 19.3295 388.329 18.7955C387.67 18.2614 386.908 17.8523 386.045 17.5682C385.192 17.2841 384.266 17.142 383.266 17.142C381.46 17.142 379.886 17.5909 378.545 18.4886C377.204 19.375 376.164 20.6705 375.425 22.375C374.687 24.0682 374.317 26.125 374.317 28.5455C374.317 31.0341 374.687 33.125 375.425 34.8182C376.175 36.5114 377.221 37.7898 378.562 38.6534C379.903 39.517 381.454 39.9489 383.215 39.9489C384.204 39.9489 385.119 39.8182 385.96 39.5568C386.812 39.2955 387.567 38.9148 388.227 38.4148C388.886 37.9034 389.431 37.2841 389.863 36.5568C390.306 35.8295 390.613 35 390.783 34.0682L398.249 34.1023C398.056 35.7045 397.573 37.25 396.8 38.7386C396.039 40.2159 395.011 41.5398 393.715 42.7102C392.431 43.8693 390.897 44.7898 389.113 45.4716C387.34 46.142 385.335 46.4773 383.096 46.4773C379.982 46.4773 377.198 45.7727 374.744 44.3636C372.3 42.9545 370.369 40.9148 368.948 38.2443C367.539 35.5739 366.835 32.3409 366.835 28.5455C366.835 24.7386 367.55 21.5 368.982 18.8295C370.414 16.1591 372.357 14.125 374.812 12.7273C377.266 11.3182 380.028 10.6136 383.096 10.6136C385.119 10.6136 386.994 10.8977 388.721 11.4659C390.46 12.0341 391.999 12.8636 393.34 13.9545C394.681 15.0341 395.772 16.358 396.613 17.9261C397.465 19.4943 398.011 21.2898 398.249 23.3125ZM410.667 30.8636V46H403.406V11.0909H410.462V24.4375H410.769C411.36 22.892 412.315 21.6818 413.633 20.8068C414.951 19.9205 416.604 19.4773 418.593 19.4773C420.411 19.4773 421.996 19.875 423.349 20.6705C424.712 21.4545 425.769 22.5852 426.519 24.0625C427.281 25.5284 427.656 27.2841 427.644 29.3295V46H420.383V30.625C420.394 29.0114 419.985 27.7557 419.156 26.858C418.337 25.9602 417.19 25.5114 415.712 25.5114C414.724 25.5114 413.849 25.7216 413.087 26.142C412.337 26.5625 411.746 27.1761 411.315 27.983C410.894 28.7784 410.678 29.7386 410.667 30.8636ZM440.825 46.4943C439.154 46.4943 437.665 46.2045 436.359 45.625C435.052 45.0341 434.018 44.1648 433.256 43.017C432.506 41.858 432.131 40.4148 432.131 38.6875C432.131 37.233 432.398 36.0114 432.933 35.0227C433.467 34.0341 434.194 33.2386 435.114 32.6364C436.035 32.0341 437.08 31.5795 438.251 31.2727C439.433 30.9659 440.671 30.75 441.967 30.625C443.489 30.4659 444.717 30.3182 445.648 30.1818C446.58 30.0341 447.256 29.8182 447.677 29.5341C448.097 29.25 448.308 28.8295 448.308 28.2727V28.1705C448.308 27.0909 447.967 26.2557 447.285 25.6648C446.614 25.0739 445.66 24.7784 444.421 24.7784C443.114 24.7784 442.075 25.0682 441.302 25.6477C440.529 26.2159 440.018 26.9318 439.768 27.7955L433.052 27.25C433.393 25.6591 434.063 24.2841 435.063 23.125C436.063 21.9545 437.353 21.0568 438.933 20.4318C440.523 19.7955 442.364 19.4773 444.455 19.4773C445.91 19.4773 447.302 19.6477 448.631 19.9886C449.972 20.3295 451.16 20.858 452.194 21.5739C453.239 22.2898 454.063 23.2102 454.665 24.3352C455.268 25.4489 455.569 26.7841 455.569 28.3409V46H448.683V42.3693H448.478C448.058 43.1875 447.495 43.9091 446.79 44.5341C446.086 45.1477 445.239 45.6307 444.251 45.983C443.262 46.3239 442.12 46.4943 440.825 46.4943ZM442.904 41.483C443.972 41.483 444.915 41.2727 445.734 40.8523C446.552 40.4205 447.194 39.8409 447.66 39.1136C448.126 38.3864 448.359 37.5625 448.359 36.642V33.8636C448.131 34.0114 447.819 34.1477 447.421 34.2727C447.035 34.3864 446.597 34.4943 446.109 34.5966C445.62 34.6875 445.131 34.7727 444.643 34.8523C444.154 34.9205 443.711 34.983 443.313 35.0398C442.461 35.1648 441.717 35.3636 441.08 35.6364C440.444 35.9091 439.95 36.2784 439.597 36.7443C439.245 37.1989 439.069 37.767 439.069 38.4489C439.069 39.4375 439.427 40.1932 440.143 40.7159C440.87 41.2273 441.79 41.483 442.904 41.483ZM461.202 46V19.8182H468.123V24.4375H468.43C468.975 22.9034 469.884 21.6932 471.157 20.8068C472.43 19.9205 473.952 19.4773 475.725 19.4773C477.521 19.4773 479.049 19.9261 480.31 20.8239C481.572 21.7102 482.413 22.9148 482.833 24.4375H483.106C483.64 22.9375 484.606 21.7386 486.004 20.8409C487.413 19.9318 489.077 19.4773 490.998 19.4773C493.441 19.4773 495.424 20.2557 496.947 21.8125C498.481 23.358 499.248 25.5511 499.248 28.392V46H492.004V29.8239C492.004 28.3693 491.617 27.2784 490.844 26.5511C490.072 25.8239 489.106 25.4602 487.947 25.4602C486.629 25.4602 485.6 25.8807 484.862 26.7216C484.123 27.5511 483.754 28.6477 483.754 30.0114V46H476.714V29.6705C476.714 28.3864 476.344 27.3636 475.606 26.6023C474.879 25.8409 473.918 25.4602 472.725 25.4602C471.918 25.4602 471.191 25.6648 470.543 26.0739C469.907 26.4716 469.401 27.0341 469.026 27.7614C468.651 28.4773 468.464 29.3182 468.464 30.2841V46H461.202ZM504.984 55.8182V19.8182H512.143V24.2159H512.467C512.785 23.5114 513.245 22.7955 513.847 22.0682C514.461 21.3295 515.256 20.7159 516.234 20.2273C517.222 19.7273 518.45 19.4773 519.915 19.4773C521.825 19.4773 523.586 19.9773 525.2 20.9773C526.813 21.9659 528.103 23.4602 529.069 25.4602C530.035 27.4489 530.518 29.9432 530.518 32.9432C530.518 35.8636 530.046 38.3295 529.103 40.3409C528.171 42.3409 526.898 43.858 525.285 44.892C523.683 45.9148 521.887 46.4261 519.898 46.4261C518.489 46.4261 517.29 46.1932 516.302 45.7273C515.325 45.2614 514.523 44.6761 513.898 43.9716C513.273 43.2557 512.796 42.5341 512.467 41.8068H512.245V55.8182H504.984ZM512.092 32.9091C512.092 34.4659 512.308 35.8239 512.739 36.983C513.171 38.142 513.796 39.0455 514.614 39.6932C515.433 40.3295 516.427 40.6477 517.597 40.6477C518.779 40.6477 519.779 40.3239 520.597 39.6761C521.415 39.017 522.035 38.108 522.455 36.9489C522.887 35.7784 523.103 34.4318 523.103 32.9091C523.103 31.3977 522.893 30.0682 522.472 28.9205C522.052 27.7727 521.433 26.875 520.614 26.2273C519.796 25.5795 518.79 25.2557 517.597 25.2557C516.415 25.2557 515.415 25.5682 514.597 26.1932C513.79 26.8182 513.171 27.7045 512.739 28.8523C512.308 30 512.092 31.3523 512.092 32.9091ZM535.359 46V19.8182H542.62V46H535.359ZM539.006 16.4432C537.927 16.4432 537.001 16.0852 536.228 15.3693C535.467 14.642 535.086 13.7727 535.086 12.7614C535.086 11.7614 535.467 10.9034 536.228 10.1875C537.001 9.46023 537.927 9.09659 539.006 9.09659C540.086 9.09659 541.006 9.46023 541.768 10.1875C542.54 10.9034 542.927 11.7614 542.927 12.7614C542.927 13.7727 542.54 14.642 541.768 15.3693C541.006 16.0852 540.086 16.4432 539.006 16.4432ZM560.266 46.5114C557.619 46.5114 555.329 45.9489 553.397 44.8239C551.477 43.6875 549.994 42.108 548.948 40.0852C547.903 38.0511 547.38 35.6932 547.38 33.0114C547.38 30.3068 547.903 27.9432 548.948 25.9205C549.994 23.8864 551.477 22.3068 553.397 21.1818C555.329 20.0455 557.619 19.4773 560.266 19.4773C562.914 19.4773 565.198 20.0455 567.119 21.1818C569.05 22.3068 570.539 23.8864 571.585 25.9205C572.63 27.9432 573.153 30.3068 573.153 33.0114C573.153 35.6932 572.63 38.0511 571.585 40.0852C570.539 42.108 569.05 43.6875 567.119 44.8239C565.198 45.9489 562.914 46.5114 560.266 46.5114ZM560.3 40.8864C561.505 40.8864 562.511 40.5455 563.317 39.8636C564.124 39.1705 564.732 38.2273 565.141 37.0341C565.562 35.8409 565.772 34.483 565.772 32.9602C565.772 31.4375 565.562 30.0795 565.141 28.8864C564.732 27.6932 564.124 26.75 563.317 26.0568C562.511 25.3636 561.505 25.017 560.3 25.017C559.085 25.017 558.062 25.3636 557.232 26.0568C556.414 26.75 555.795 27.6932 555.374 28.8864C554.965 30.0795 554.761 31.4375 554.761 32.9602C554.761 34.483 554.965 35.8409 555.374 37.0341C555.795 38.2273 556.414 39.1705 557.232 39.8636C558.062 40.5455 559.085 40.8864 560.3 40.8864ZM585.136 30.8636V46H577.874V19.8182H584.795V24.4375H585.102C585.681 22.9148 586.653 21.7102 588.016 20.8239C589.38 19.9261 591.033 19.4773 592.977 19.4773C594.795 19.4773 596.38 19.875 597.732 20.6705C599.085 21.4659 600.136 22.6023 600.886 24.0795C601.636 25.5455 602.011 27.2955 602.011 29.3295V46H594.749V30.625C594.761 29.0227 594.352 27.7727 593.522 26.875C592.692 25.9659 591.55 25.5114 590.096 25.5114C589.119 25.5114 588.255 25.7216 587.505 26.142C586.766 26.5625 586.187 27.1761 585.766 27.983C585.357 28.7784 585.147 29.7386 585.136 30.8636ZM637.917 21.1307C637.781 19.7557 637.195 18.6875 636.161 17.9261C635.127 17.1648 633.724 16.7841 631.951 16.7841C630.746 16.7841 629.729 16.9545 628.9 17.2955C628.07 17.625 627.434 18.0852 626.991 18.6761C626.559 19.267 626.343 19.9375 626.343 20.6875C626.32 21.3125 626.451 21.858 626.735 22.3239C627.031 22.7898 627.434 23.1932 627.945 23.5341C628.457 23.8636 629.048 24.1534 629.718 24.4034C630.388 24.642 631.104 24.8466 631.866 25.017L635.002 25.767C636.525 26.108 637.923 26.5625 639.195 27.1307C640.468 27.6989 641.57 28.3977 642.502 29.2273C643.434 30.0568 644.156 31.0341 644.667 32.1591C645.19 33.2841 645.457 34.5739 645.468 36.0284C645.457 38.1648 644.911 40.017 643.832 41.5852C642.763 43.142 641.218 44.3523 639.195 45.2159C637.184 46.0682 634.758 46.4943 631.917 46.4943C629.099 46.4943 626.644 46.0625 624.553 45.1989C622.474 44.3352 620.849 43.0568 619.678 41.3636C618.519 39.6591 617.911 37.5511 617.854 35.0398H624.996C625.076 36.2102 625.411 37.1875 626.002 37.9716C626.604 38.7443 627.406 39.3295 628.406 39.7273C629.417 40.1136 630.559 40.3068 631.832 40.3068C633.082 40.3068 634.167 40.125 635.087 39.7614C636.019 39.3977 636.741 38.892 637.252 38.2443C637.763 37.5966 638.019 36.8523 638.019 36.0114C638.019 35.2273 637.786 34.5682 637.32 34.0341C636.866 33.5 636.195 33.0455 635.309 32.6705C634.434 32.2955 633.36 31.9545 632.087 31.6477L628.286 30.6932C625.343 29.9773 623.019 28.858 621.315 27.3352C619.61 25.8125 618.763 23.7614 618.775 21.1818C618.763 19.0682 619.326 17.2216 620.462 15.642C621.61 14.0625 623.184 12.8295 625.184 11.9432C627.184 11.0568 629.457 10.6136 632.002 10.6136C634.593 10.6136 636.854 11.0568 638.786 11.9432C640.729 12.8295 642.241 14.0625 643.32 15.642C644.4 17.2216 644.957 19.0511 644.991 21.1307H637.917ZM657.558 30.8636V46H650.296V11.0909H657.353V24.4375H657.66C658.251 22.892 659.205 21.6818 660.523 20.8068C661.842 19.9205 663.495 19.4773 665.484 19.4773C667.302 19.4773 668.887 19.875 670.239 20.6705C671.603 21.4545 672.66 22.5852 673.41 24.0625C674.171 25.5284 674.546 27.2841 674.535 29.3295V46H667.273V30.625C667.285 29.0114 666.876 27.7557 666.046 26.858C665.228 25.9602 664.08 25.5114 662.603 25.5114C661.614 25.5114 660.739 25.7216 659.978 26.142C659.228 26.5625 658.637 27.1761 658.205 27.983C657.785 28.7784 657.569 29.7386 657.558 30.8636ZM680.249 46V19.8182H687.511V46H680.249ZM683.897 16.4432C682.817 16.4432 681.891 16.0852 681.119 15.3693C680.357 14.642 679.977 13.7727 679.977 12.7614C679.977 11.7614 680.357 10.9034 681.119 10.1875C681.891 9.46023 682.817 9.09659 683.897 9.09659C684.977 9.09659 685.897 9.46023 686.658 10.1875C687.431 10.9034 687.817 11.7614 687.817 12.7614C687.817 13.7727 687.431 14.642 686.658 15.3693C685.897 16.0852 684.977 16.4432 683.897 16.4432ZM693.327 55.8182V19.8182H700.487V24.2159H700.81C701.129 23.5114 701.589 22.7955 702.191 22.0682C702.805 21.3295 703.6 20.7159 704.577 20.2273C705.566 19.7273 706.793 19.4773 708.259 19.4773C710.168 19.4773 711.93 19.9773 713.543 20.9773C715.157 21.9659 716.447 23.4602 717.413 25.4602C718.379 27.4489 718.862 29.9432 718.862 32.9432C718.862 35.8636 718.39 38.3295 717.447 40.3409C716.515 42.3409 715.242 43.858 713.629 44.892C712.026 45.9148 710.231 46.4261 708.242 46.4261C706.833 46.4261 705.634 46.1932 704.646 45.7273C703.668 45.2614 702.867 44.6761 702.242 43.9716C701.617 43.2557 701.14 42.5341 700.81 41.8068H700.589V55.8182H693.327ZM700.435 32.9091C700.435 34.4659 700.651 35.8239 701.083 36.983C701.515 38.142 702.14 39.0455 702.958 39.6932C703.776 40.3295 704.771 40.6477 705.941 40.6477C707.123 40.6477 708.123 40.3239 708.941 39.6761C709.759 39.017 710.379 38.108 710.799 36.9489C711.231 35.7784 711.447 34.4318 711.447 32.9091C711.447 31.3977 711.237 30.0682 710.816 28.9205C710.396 27.7727 709.776 26.875 708.958 26.2273C708.14 25.5795 707.134 25.2557 705.941 25.2557C704.759 25.2557 703.759 25.5682 702.941 26.1932C702.134 26.8182 701.515 27.7045 701.083 28.8523C700.651 30 700.435 31.3523 700.435 32.9091Z" fill="#FF0000" fill-opacity="0.5"/>
<path d="M26.3771 22.375C26.1385 21.5455 25.8033 20.8125 25.3715 20.1761C24.9396 19.5284 24.4112 18.983 23.7862 18.5398C23.1726 18.0852 22.468 17.7386 21.6726 17.5C20.8885 17.2614 20.0192 17.142 19.0646 17.142C17.2805 17.142 15.7124 17.5852 14.3601 18.4716C13.0192 19.358 11.9737 20.6477 11.2237 22.3409C10.4737 24.0227 10.0987 26.0795 10.0987 28.5114C10.0987 30.9432 10.468 33.0114 11.2067 34.7159C11.9453 36.4205 12.9908 37.7216 14.343 38.6193C15.6953 39.5057 17.2919 39.9489 19.1328 39.9489C20.8033 39.9489 22.2294 39.6534 23.4112 39.0625C24.6044 38.4602 25.5135 37.6136 26.1385 36.5227C26.7749 35.4318 27.093 34.142 27.093 32.6534L28.593 32.875H19.593V27.3182H34.201V31.7159C34.201 34.7841 33.5533 37.4205 32.2578 39.625C30.9624 41.8182 29.1783 43.5114 26.9055 44.7045C24.6328 45.8864 22.0305 46.4773 19.0987 46.4773C15.826 46.4773 12.951 45.7557 10.4737 44.3125C7.99645 42.858 6.06463 40.7955 4.67827 38.125C3.30327 35.4432 2.61577 32.2614 2.61577 28.5795C2.61577 25.75 3.02486 23.2273 3.84304 21.0114C4.67259 18.7841 5.83168 16.8977 7.32031 15.3523C8.80895 13.8068 10.5419 12.6307 12.5192 11.8239C14.4964 11.017 16.6385 10.6136 18.9453 10.6136C20.9226 10.6136 22.7635 10.9034 24.468 11.483C26.1726 12.0511 27.6839 12.858 29.0021 13.9034C30.3317 14.9489 31.4169 16.1932 32.2578 17.6364C33.0987 19.0682 33.6385 20.6477 33.8771 22.375H26.3771ZM39.6087 46V19.8182H46.6484V24.3864H46.9212C47.3984 22.7614 48.1996 21.5341 49.3246 20.7045C50.4496 19.8636 51.745 19.4432 53.2109 19.4432C53.5746 19.4432 53.9666 19.4659 54.3871 19.5114C54.8075 19.5568 55.1768 19.6193 55.495 19.6989V26.142C55.1541 26.0398 54.6825 25.9489 54.0803 25.8693C53.478 25.7898 52.9268 25.75 52.4268 25.75C51.3587 25.75 50.4041 25.983 49.5632 26.4489C48.7337 26.9034 48.0746 27.5398 47.5859 28.358C47.1087 29.1761 46.87 30.1193 46.87 31.1875V46H39.6087ZM65.9652 46.4943C64.2947 46.4943 62.8061 46.2045 61.4993 45.625C60.1925 45.0341 59.1584 44.1648 58.397 43.017C57.647 41.858 57.272 40.4148 57.272 38.6875C57.272 37.233 57.5391 36.0114 58.0732 35.0227C58.6072 34.0341 59.3345 33.2386 60.255 32.6364C61.1754 32.0341 62.2209 31.5795 63.3913 31.2727C64.5732 30.9659 65.8118 30.75 67.1072 30.625C68.63 30.4659 69.8572 30.3182 70.7891 30.1818C71.7209 30.0341 72.397 29.8182 72.8175 29.5341C73.2379 29.25 73.4482 28.8295 73.4482 28.2727V28.1705C73.4482 27.0909 73.1072 26.2557 72.4254 25.6648C71.755 25.0739 70.8004 24.7784 69.5618 24.7784C68.255 24.7784 67.2152 25.0682 66.4425 25.6477C65.6697 26.2159 65.1584 26.9318 64.9084 27.7955L58.1925 27.25C58.5334 25.6591 59.2038 24.2841 60.2038 23.125C61.2038 21.9545 62.4936 21.0568 64.0732 20.4318C65.6641 19.7955 67.505 19.4773 69.5959 19.4773C71.0504 19.4773 72.4425 19.6477 73.772 19.9886C75.1129 20.3295 76.3004 20.858 77.3345 21.5739C78.38 22.2898 79.2038 23.2102 79.8061 24.3352C80.4084 25.4489 80.7095 26.7841 80.7095 28.3409V46H73.8232V42.3693H73.6186C73.1982 43.1875 72.6357 43.9091 71.9311 44.5341C71.2266 45.1477 70.38 45.6307 69.3913 45.983C68.4027 46.3239 67.2607 46.4943 65.9652 46.4943ZM68.0447 41.483C69.1129 41.483 70.0561 41.2727 70.8743 40.8523C71.6925 40.4205 72.3345 39.8409 72.8004 39.1136C73.2663 38.3864 73.4993 37.5625 73.4993 36.642V33.8636C73.272 34.0114 72.9595 34.1477 72.5618 34.2727C72.1754 34.3864 71.7379 34.4943 71.2493 34.5966C70.7607 34.6875 70.272 34.7727 69.7834 34.8523C69.2947 34.9205 68.8516 34.983 68.4538 35.0398C67.6016 35.1648 66.8572 35.3636 66.2209 35.6364C65.5845 35.9091 65.0902 36.2784 64.7379 36.7443C64.3857 37.1989 64.2095 37.767 64.2095 38.4489C64.2095 39.4375 64.5675 40.1932 65.2834 40.7159C66.0107 41.2273 66.9311 41.483 68.0447 41.483ZM93.6044 30.8636V46H86.343V19.8182H93.2635V24.4375H93.5703C94.1499 22.9148 95.1214 21.7102 96.4851 20.8239C97.8487 19.9261 99.5021 19.4773 101.445 19.4773C103.263 19.4773 104.849 19.875 106.201 20.6705C107.553 21.4659 108.604 22.6023 109.354 24.0795C110.104 25.5455 110.479 27.2955 110.479 29.3295V46H103.218V30.625C103.229 29.0227 102.82 27.7727 101.991 26.875C101.161 25.9659 100.019 25.5114 98.5646 25.5114C97.5874 25.5114 96.7237 25.7216 95.9737 26.142C95.2351 26.5625 94.6555 27.1761 94.2351 27.983C93.826 28.7784 93.6158 29.7386 93.6044 30.8636ZM125.85 46.4261C123.862 46.4261 122.06 45.9148 120.447 44.892C118.844 43.858 117.572 42.3409 116.629 40.3409C115.697 38.3295 115.231 35.8636 115.231 32.9432C115.231 29.9432 115.714 27.4489 116.68 25.4602C117.646 23.4602 118.93 21.9659 120.532 20.9773C122.146 19.9773 123.913 19.4773 125.833 19.4773C127.299 19.4773 128.521 19.7273 129.498 20.2273C130.487 20.7159 131.282 21.3295 131.884 22.0682C132.498 22.7955 132.964 23.5114 133.282 24.2159H133.504V11.0909H140.748V46H133.589V41.8068H133.282C132.941 42.5341 132.458 43.2557 131.833 43.9716C131.219 44.6761 130.418 45.2614 129.43 45.7273C128.452 46.1932 127.259 46.4261 125.85 46.4261ZM128.151 40.6477C129.322 40.6477 130.31 40.3295 131.117 39.6932C131.935 39.0455 132.56 38.142 132.992 36.983C133.435 35.8239 133.657 34.4659 133.657 32.9091C133.657 31.3523 133.441 30 133.009 28.8523C132.577 27.7045 131.952 26.8182 131.134 26.1932C130.316 25.5682 129.322 25.2557 128.151 25.2557C126.958 25.2557 125.952 25.5795 125.134 26.2273C124.316 26.875 123.697 27.7727 123.276 28.9205C122.856 30.0682 122.646 31.3977 122.646 32.9091C122.646 34.4318 122.856 35.7784 123.276 36.9489C123.708 38.108 124.327 39.017 125.134 39.6761C125.952 40.3239 126.958 40.6477 128.151 40.6477ZM157.964 11.0909H167.066L176.68 34.5455H177.089L186.702 11.0909H195.805V46H188.646V23.2784H188.356L179.322 45.8295H174.447L165.413 23.1932H165.123V46H157.964V11.0909ZM209.215 46.4943C207.545 46.4943 206.056 46.2045 204.749 45.625C203.442 45.0341 202.408 44.1648 201.647 43.017C200.897 41.858 200.522 40.4148 200.522 38.6875C200.522 37.233 200.789 36.0114 201.323 35.0227C201.857 34.0341 202.585 33.2386 203.505 32.6364C204.425 32.0341 205.471 31.5795 206.641 31.2727C207.823 30.9659 209.062 30.75 210.357 30.625C211.88 30.4659 213.107 30.3182 214.039 30.1818C214.971 30.0341 215.647 29.8182 216.067 29.5341C216.488 29.25 216.698 28.8295 216.698 28.2727V28.1705C216.698 27.0909 216.357 26.2557 215.675 25.6648C215.005 25.0739 214.05 24.7784 212.812 24.7784C211.505 24.7784 210.465 25.0682 209.692 25.6477C208.92 26.2159 208.408 26.9318 208.158 27.7955L201.442 27.25C201.783 25.6591 202.454 24.2841 203.454 23.125C204.454 21.9545 205.744 21.0568 207.323 20.4318C208.914 19.7955 210.755 19.4773 212.846 19.4773C214.3 19.4773 215.692 19.6477 217.022 19.9886C218.363 20.3295 219.55 20.858 220.585 21.5739C221.63 22.2898 222.454 23.2102 223.056 24.3352C223.658 25.4489 223.96 26.7841 223.96 28.3409V46H217.073V42.3693H216.869C216.448 43.1875 215.886 43.9091 215.181 44.5341C214.477 45.1477 213.63 45.6307 212.641 45.983C211.653 46.3239 210.511 46.4943 209.215 46.4943ZM211.295 41.483C212.363 41.483 213.306 41.2727 214.124 40.8523C214.942 40.4205 215.585 39.8409 216.05 39.1136C216.516 38.3864 216.749 37.5625 216.749 36.642V33.8636C216.522 34.0114 216.21 34.1477 215.812 34.2727C215.425 34.3864 214.988 34.4943 214.499 34.5966C214.011 34.6875 213.522 34.7727 213.033 34.8523C212.545 34.9205 212.102 34.983 211.704 35.0398C210.852 35.1648 210.107 35.3636 209.471 35.6364C208.835 35.9091 208.34 36.2784 207.988 36.7443C207.636 37.1989 207.46 37.767 207.46 38.4489C207.46 39.4375 207.817 40.1932 208.533 40.7159C209.261 41.2273 210.181 41.483 211.295 41.483ZM251.377 27.2841L244.729 27.6932C244.616 27.125 244.371 26.6136 243.996 26.1591C243.621 25.6932 243.127 25.3239 242.513 25.0511C241.911 24.767 241.19 24.625 240.349 24.625C239.224 24.625 238.275 24.8636 237.502 25.3409C236.729 25.8068 236.343 26.4318 236.343 27.2159C236.343 27.8409 236.593 28.3693 237.093 28.8011C237.593 29.233 238.451 29.5795 239.667 29.8409L244.406 30.7955C246.951 31.3182 248.849 32.1591 250.099 33.3182C251.349 34.4773 251.974 36 251.974 37.8864C251.974 39.6023 251.468 41.108 250.457 42.4034C249.457 43.6989 248.082 44.7102 246.332 45.4375C244.593 46.1534 242.587 46.5114 240.315 46.5114C236.849 46.5114 234.087 45.7898 232.031 44.3466C229.985 42.892 228.786 40.9148 228.434 38.4148L235.576 38.0398C235.792 39.0966 236.315 39.9034 237.144 40.4602C237.974 41.0057 239.036 41.2784 240.332 41.2784C241.604 41.2784 242.627 41.0341 243.4 40.5455C244.184 40.0455 244.582 39.4034 244.593 38.6193C244.582 37.9602 244.303 37.4205 243.758 37C243.212 36.5682 242.371 36.2386 241.235 36.0114L236.701 35.108C234.144 34.5966 232.241 33.7102 230.991 32.4489C229.752 31.1875 229.133 29.5795 229.133 27.625C229.133 25.9432 229.587 24.4943 230.496 23.2784C231.417 22.0625 232.707 21.125 234.366 20.4659C236.036 19.8068 237.991 19.4773 240.229 19.4773C243.536 19.4773 246.138 20.1761 248.036 21.5739C249.945 22.9716 251.059 24.875 251.377 27.2841ZM270.472 19.8182V25.2727H254.705V19.8182H270.472ZM258.285 13.5455H265.546V37.9545C265.546 38.625 265.648 39.1477 265.853 39.5227C266.058 39.8864 266.342 40.142 266.705 40.2898C267.08 40.4375 267.512 40.5114 268.001 40.5114C268.342 40.5114 268.683 40.483 269.023 40.4261C269.364 40.358 269.626 40.3068 269.808 40.2727L270.95 45.6761C270.586 45.7898 270.075 45.9205 269.415 46.0682C268.756 46.2273 267.955 46.3239 267.012 46.358C265.262 46.4261 263.728 46.1932 262.41 45.6591C261.103 45.125 260.086 44.2955 259.359 43.1705C258.631 42.0455 258.273 40.625 258.285 38.9091V13.5455ZM286.853 46.5114C284.16 46.5114 281.842 45.9659 279.898 44.875C277.967 43.7727 276.478 42.2159 275.433 40.2045C274.387 38.1818 273.864 35.7898 273.864 33.0284C273.864 30.3352 274.387 27.9716 275.433 25.9375C276.478 23.9034 277.95 22.3182 279.847 21.1818C281.756 20.0455 283.995 19.4773 286.563 19.4773C288.29 19.4773 289.898 19.7557 291.387 20.3125C292.887 20.858 294.194 21.6818 295.308 22.7841C296.433 23.8864 297.308 25.2727 297.933 26.9432C298.558 28.6023 298.87 30.5455 298.87 32.7727V34.767H276.762V30.267H292.035C292.035 29.2216 291.808 28.2955 291.353 27.4886C290.898 26.6818 290.268 26.0511 289.461 25.5966C288.665 25.1307 287.739 24.8977 286.683 24.8977C285.58 24.8977 284.603 25.1534 283.751 25.6648C282.91 26.1648 282.251 26.8409 281.773 27.6932C281.296 28.5341 281.052 29.4716 281.04 30.5057V34.7841C281.04 36.0795 281.279 37.1989 281.756 38.142C282.245 39.0852 282.933 39.8125 283.819 40.3239C284.705 40.8352 285.756 41.0909 286.972 41.0909C287.779 41.0909 288.518 40.9773 289.188 40.75C289.859 40.5227 290.433 40.1818 290.91 39.7273C291.387 39.2727 291.751 38.7159 292.001 38.0568L298.717 38.5C298.376 40.1136 297.677 41.5227 296.62 42.7273C295.575 43.9205 294.222 44.8523 292.563 45.5227C290.915 46.1818 289.012 46.5114 286.853 46.5114ZM303.609 46V19.8182H310.648V24.3864H310.921C311.398 22.7614 312.2 21.5341 313.325 20.7045C314.45 19.8636 315.745 19.4432 317.211 19.4432C317.575 19.4432 317.967 19.4659 318.387 19.5114C318.808 19.5568 319.177 19.6193 319.495 19.6989V26.142C319.154 26.0398 318.683 25.9489 318.08 25.8693C317.478 25.7898 316.927 25.75 316.427 25.75C315.359 25.75 314.404 25.983 313.563 26.4489C312.734 26.9034 312.075 27.5398 311.586 28.358C311.109 29.1761 310.87 30.1193 310.87 31.1875V46H303.609ZM345.033 27.2841L338.386 27.6932C338.272 27.125 338.028 26.6136 337.653 26.1591C337.278 25.6932 336.783 25.3239 336.17 25.0511C335.567 24.767 334.846 24.625 334.005 24.625C332.88 24.625 331.931 24.8636 331.158 25.3409C330.386 25.8068 329.999 26.4318 329.999 27.2159C329.999 27.8409 330.249 28.3693 330.749 28.8011C331.249 29.233 332.107 29.5795 333.323 29.8409L338.062 30.7955C340.607 31.3182 342.505 32.1591 343.755 33.3182C345.005 34.4773 345.63 36 345.63 37.8864C345.63 39.6023 345.124 41.108 344.113 42.4034C343.113 43.6989 341.738 44.7102 339.988 45.4375C338.249 46.1534 336.244 46.5114 333.971 46.5114C330.505 46.5114 327.744 45.7898 325.687 44.3466C323.641 42.892 322.442 40.9148 322.09 38.4148L329.232 38.0398C329.448 39.0966 329.971 39.9034 330.8 40.4602C331.63 41.0057 332.692 41.2784 333.988 41.2784C335.261 41.2784 336.283 41.0341 337.056 40.5455C337.84 40.0455 338.238 39.4034 338.249 38.6193C338.238 37.9602 337.96 37.4205 337.414 37C336.869 36.5682 336.028 36.2386 334.891 36.0114L330.357 35.108C327.8 34.5966 325.897 33.7102 324.647 32.4489C323.408 31.1875 322.789 29.5795 322.789 27.625C322.789 25.9432 323.244 24.4943 324.153 23.2784C325.073 22.0625 326.363 21.125 328.022 20.4659C329.692 19.8068 331.647 19.4773 333.886 19.4773C337.192 19.4773 339.795 20.1761 341.692 21.5739C343.602 22.9716 344.715 24.875 345.033 27.2841ZM392.249 23.3125H384.783C384.647 22.3466 384.369 21.4886 383.948 20.7386C383.528 19.9773 382.988 19.3295 382.329 18.7955C381.67 18.2614 380.908 17.8523 380.045 17.5682C379.192 17.2841 378.266 17.142 377.266 17.142C375.46 17.142 373.886 17.5909 372.545 18.4886C371.204 19.375 370.164 20.6705 369.425 22.375C368.687 24.0682 368.317 26.125 368.317 28.5455C368.317 31.0341 368.687 33.125 369.425 34.8182C370.175 36.5114 371.221 37.7898 372.562 38.6534C373.903 39.517 375.454 39.9489 377.215 39.9489C378.204 39.9489 379.119 39.8182 379.96 39.5568C380.812 39.2955 381.567 38.9148 382.227 38.4148C382.886 37.9034 383.431 37.2841 383.863 36.5568C384.306 35.8295 384.613 35 384.783 34.0682L392.249 34.1023C392.056 35.7045 391.573 37.25 390.8 38.7386C390.039 40.2159 389.011 41.5398 387.715 42.7102C386.431 43.8693 384.897 44.7898 383.113 45.4716C381.34 46.142 379.335 46.4773 377.096 46.4773C373.982 46.4773 371.198 45.7727 368.744 44.3636C366.3 42.9545 364.369 40.9148 362.948 38.2443C361.539 35.5739 360.835 32.3409 360.835 28.5455C360.835 24.7386 361.55 21.5 362.982 18.8295C364.414 16.1591 366.357 14.125 368.812 12.7273C371.266 11.3182 374.028 10.6136 377.096 10.6136C379.119 10.6136 380.994 10.8977 382.721 11.4659C384.46 12.0341 385.999 12.8636 387.34 13.9545C388.681 15.0341 389.772 16.358 390.613 17.9261C391.465 19.4943 392.011 21.2898 392.249 23.3125ZM404.667 30.8636V46H397.406V11.0909H404.462V24.4375H404.769C405.36 22.892 406.315 21.6818 407.633 20.8068C408.951 19.9205 410.604 19.4773 412.593 19.4773C414.411 19.4773 415.996 19.875 417.349 20.6705C418.712 21.4545 419.769 22.5852 420.519 24.0625C421.281 25.5284 421.656 27.2841 421.644 29.3295V46H414.383V30.625C414.394 29.0114 413.985 27.7557 413.156 26.858C412.337 25.9602 411.19 25.5114 409.712 25.5114C408.724 25.5114 407.849 25.7216 407.087 26.142C406.337 26.5625 405.746 27.1761 405.315 27.983C404.894 28.7784 404.678 29.7386 404.667 30.8636ZM434.825 46.4943C433.154 46.4943 431.665 46.2045 430.359 45.625C429.052 45.0341 428.018 44.1648 427.256 43.017C426.506 41.858 426.131 40.4148 426.131 38.6875C426.131 37.233 426.398 36.0114 426.933 35.0227C427.467 34.0341 428.194 33.2386 429.114 32.6364C430.035 32.0341 431.08 31.5795 432.251 31.2727C433.433 30.9659 434.671 30.75 435.967 30.625C437.489 30.4659 438.717 30.3182 439.648 30.1818C440.58 30.0341 441.256 29.8182 441.677 29.5341C442.097 29.25 442.308 28.8295 442.308 28.2727V28.1705C442.308 27.0909 441.967 26.2557 441.285 25.6648C440.614 25.0739 439.66 24.7784 438.421 24.7784C437.114 24.7784 436.075 25.0682 435.302 25.6477C434.529 26.2159 434.018 26.9318 433.768 27.7955L427.052 27.25C427.393 25.6591 428.063 24.2841 429.063 23.125C430.063 21.9545 431.353 21.0568 432.933 20.4318C434.523 19.7955 436.364 19.4773 438.455 19.4773C439.91 19.4773 441.302 19.6477 442.631 19.9886C443.972 20.3295 445.16 20.858 446.194 21.5739C447.239 22.2898 448.063 23.2102 448.665 24.3352C449.268 25.4489 449.569 26.7841 449.569 28.3409V46H442.683V42.3693H442.478C442.058 43.1875 441.495 43.9091 440.79 44.5341C440.086 45.1477 439.239 45.6307 438.251 45.983C437.262 46.3239 436.12 46.4943 434.825 46.4943ZM436.904 41.483C437.972 41.483 438.915 41.2727 439.734 40.8523C440.552 40.4205 441.194 39.8409 441.66 39.1136C442.126 38.3864 442.359 37.5625 442.359 36.642V33.8636C442.131 34.0114 441.819 34.1477 441.421 34.2727C441.035 34.3864 440.597 34.4943 440.109 34.5966C439.62 34.6875 439.131 34.7727 438.643 34.8523C438.154 34.9205 437.711 34.983 437.313 35.0398C436.461 35.1648 435.717 35.3636 435.08 35.6364C434.444 35.9091 433.95 36.2784 433.597 36.7443C433.245 37.1989 433.069 37.767 433.069 38.4489C433.069 39.4375 433.427 40.1932 434.143 40.7159C434.87 41.2273 435.79 41.483 436.904 41.483ZM455.202 46V19.8182H462.123V24.4375H462.43C462.975 22.9034 463.884 21.6932 465.157 20.8068C466.43 19.9205 467.952 19.4773 469.725 19.4773C471.521 19.4773 473.049 19.9261 474.31 20.8239C475.572 21.7102 476.413 22.9148 476.833 24.4375H477.106C477.64 22.9375 478.606 21.7386 480.004 20.8409C481.413 19.9318 483.077 19.4773 484.998 19.4773C487.441 19.4773 489.424 20.2557 490.947 21.8125C492.481 23.358 493.248 25.5511 493.248 28.392V46H486.004V29.8239C486.004 28.3693 485.617 27.2784 484.844 26.5511C484.072 25.8239 483.106 25.4602 481.947 25.4602C480.629 25.4602 479.6 25.8807 478.862 26.7216C478.123 27.5511 477.754 28.6477 477.754 30.0114V46H470.714V29.6705C470.714 28.3864 470.344 27.3636 469.606 26.6023C468.879 25.8409 467.918 25.4602 466.725 25.4602C465.918 25.4602 465.191 25.6648 464.543 26.0739C463.907 26.4716 463.401 27.0341 463.026 27.7614C462.651 28.4773 462.464 29.3182 462.464 30.2841V46H455.202ZM498.984 55.8182V19.8182H506.143V24.2159H506.467C506.785 23.5114 507.245 22.7955 507.847 22.0682C508.461 21.3295 509.256 20.7159 510.234 20.2273C511.222 19.7273 512.45 19.4773 513.915 19.4773C515.825 19.4773 517.586 19.9773 519.2 20.9773C520.813 21.9659 522.103 23.4602 523.069 25.4602C524.035 27.4489 524.518 29.9432 524.518 32.9432C524.518 35.8636 524.046 38.3295 523.103 40.3409C522.171 42.3409 520.898 43.858 519.285 44.892C517.683 45.9148 515.887 46.4261 513.898 46.4261C512.489 46.4261 511.29 46.1932 510.302 45.7273C509.325 45.2614 508.523 44.6761 507.898 43.9716C507.273 43.2557 506.796 42.5341 506.467 41.8068H506.245V55.8182H498.984ZM506.092 32.9091C506.092 34.4659 506.308 35.8239 506.739 36.983C507.171 38.142 507.796 39.0455 508.614 39.6932C509.433 40.3295 510.427 40.6477 511.597 40.6477C512.779 40.6477 513.779 40.3239 514.597 39.6761C515.415 39.017 516.035 38.108 516.455 36.9489C516.887 35.7784 517.103 34.4318 517.103 32.9091C517.103 31.3977 516.893 30.0682 516.472 28.9205C516.052 27.7727 515.433 26.875 514.614 26.2273C513.796 25.5795 512.79 25.2557 511.597 25.2557C510.415 25.2557 509.415 25.5682 508.597 26.1932C507.79 26.8182 507.171 27.7045 506.739 28.8523C506.308 30 506.092 31.3523 506.092 32.9091ZM529.359 46V19.8182H536.62V46H529.359ZM533.006 16.4432C531.927 16.4432 531.001 16.0852 530.228 15.3693C529.467 14.642 529.086 13.7727 529.086 12.7614C529.086 11.7614 529.467 10.9034 530.228 10.1875C531.001 9.46023 531.927 9.09659 533.006 9.09659C534.086 9.09659 535.006 9.46023 535.768 10.1875C536.54 10.9034 536.927 11.7614 536.927 12.7614C536.927 13.7727 536.54 14.642 535.768 15.3693C535.006 16.0852 534.086 16.4432 533.006 16.4432ZM554.266 46.5114C551.619 46.5114 549.329 45.9489 547.397 44.8239C545.477 43.6875 543.994 42.108 542.948 40.0852C541.903 38.0511 541.38 35.6932 541.38 33.0114C541.38 30.3068 541.903 27.9432 542.948 25.9205C543.994 23.8864 545.477 22.3068 547.397 21.1818C549.329 20.0455 551.619 19.4773 554.266 19.4773C556.914 19.4773 559.198 20.0455 561.119 21.1818C563.05 22.3068 564.539 23.8864 565.585 25.9205C566.63 27.9432 567.153 30.3068 567.153 33.0114C567.153 35.6932 566.63 38.0511 565.585 40.0852C564.539 42.108 563.05 43.6875 561.119 44.8239C559.198 45.9489 556.914 46.5114 554.266 46.5114ZM554.3 40.8864C555.505 40.8864 556.511 40.5455 557.317 39.8636C558.124 39.1705 558.732 38.2273 559.141 37.0341C559.562 35.8409 559.772 34.483 559.772 32.9602C559.772 31.4375 559.562 30.0795 559.141 28.8864C558.732 27.6932 558.124 26.75 557.317 26.0568C556.511 25.3636 555.505 25.017 554.3 25.017C553.085 25.017 552.062 25.3636 551.232 26.0568C550.414 26.75 549.795 27.6932 549.374 28.8864C548.965 30.0795 548.761 31.4375 548.761 32.9602C548.761 34.483 548.965 35.8409 549.374 37.0341C549.795 38.2273 550.414 39.1705 551.232 39.8636C552.062 40.5455 553.085 40.8864 554.3 40.8864ZM579.136 30.8636V46H571.874V19.8182H578.795V24.4375H579.102C579.681 22.9148 580.653 21.7102 582.016 20.8239C583.38 19.9261 585.033 19.4773 586.977 19.4773C588.795 19.4773 590.38 19.875 591.732 20.6705C593.085 21.4659 594.136 22.6023 594.886 24.0795C595.636 25.5455 596.011 27.2955 596.011 29.3295V46H588.749V30.625C588.761 29.0227 588.352 27.7727 587.522 26.875C586.692 25.9659 585.55 25.5114 584.096 25.5114C583.119 25.5114 582.255 25.7216 581.505 26.142C580.766 26.5625 580.187 27.1761 579.766 27.983C579.357 28.7784 579.147 29.7386 579.136 30.8636ZM631.917 21.1307C631.781 19.7557 631.195 18.6875 630.161 17.9261C629.127 17.1648 627.724 16.7841 625.951 16.7841C624.746 16.7841 623.729 16.9545 622.9 17.2955C622.07 17.625 621.434 18.0852 620.991 18.6761C620.559 19.267 620.343 19.9375 620.343 20.6875C620.32 21.3125 620.451 21.858 620.735 22.3239C621.031 22.7898 621.434 23.1932 621.945 23.5341C622.457 23.8636 623.048 24.1534 623.718 24.4034C624.388 24.642 625.104 24.8466 625.866 25.017L629.002 25.767C630.525 26.108 631.923 26.5625 633.195 27.1307C634.468 27.6989 635.57 28.3977 636.502 29.2273C637.434 30.0568 638.156 31.0341 638.667 32.1591C639.19 33.2841 639.457 34.5739 639.468 36.0284C639.457 38.1648 638.911 40.017 637.832 41.5852C636.763 43.142 635.218 44.3523 633.195 45.2159C631.184 46.0682 628.758 46.4943 625.917 46.4943C623.099 46.4943 620.644 46.0625 618.553 45.1989C616.474 44.3352 614.849 43.0568 613.678 41.3636C612.519 39.6591 611.911 37.5511 611.854 35.0398H618.996C619.076 36.2102 619.411 37.1875 620.002 37.9716C620.604 38.7443 621.406 39.3295 622.406 39.7273C623.417 40.1136 624.559 40.3068 625.832 40.3068C627.082 40.3068 628.167 40.125 629.087 39.7614C630.019 39.3977 630.741 38.892 631.252 38.2443C631.763 37.5966 632.019 36.8523 632.019 36.0114C632.019 35.2273 631.786 34.5682 631.32 34.0341C630.866 33.5 630.195 33.0455 629.309 32.6705C628.434 32.2955 627.36 31.9545 626.087 31.6477L622.286 30.6932C619.343 29.9773 617.019 28.858 615.315 27.3352C613.61 25.8125 612.763 23.7614 612.775 21.1818C612.763 19.0682 613.326 17.2216 614.462 15.642C615.61 14.0625 617.184 12.8295 619.184 11.9432C621.184 11.0568 623.457 10.6136 626.002 10.6136C628.593 10.6136 630.854 11.0568 632.786 11.9432C634.729 12.8295 636.241 14.0625 637.32 15.642C638.4 17.2216 638.957 19.0511 638.991 21.1307H631.917ZM651.558 30.8636V46H644.296V11.0909H651.353V24.4375H651.66C652.251 22.892 653.205 21.6818 654.523 20.8068C655.842 19.9205 657.495 19.4773 659.484 19.4773C661.302 19.4773 662.887 19.875 664.239 20.6705C665.603 21.4545 666.66 22.5852 667.41 24.0625C668.171 25.5284 668.546 27.2841 668.535 29.3295V46H661.273V30.625C661.285 29.0114 660.876 27.7557 660.046 26.858C659.228 25.9602 658.08 25.5114 656.603 25.5114C655.614 25.5114 654.739 25.7216 653.978 26.142C653.228 26.5625 652.637 27.1761 652.205 27.983C651.785 28.7784 651.569 29.7386 651.558 30.8636ZM674.249 46V19.8182H681.511V46H674.249ZM677.897 16.4432C676.817 16.4432 675.891 16.0852 675.119 15.3693C674.357 14.642 673.977 13.7727 673.977 12.7614C673.977 11.7614 674.357 10.9034 675.119 10.1875C675.891 9.46023 676.817 9.09659 677.897 9.09659C678.977 9.09659 679.897 9.46023 680.658 10.1875C681.431 10.9034 681.817 11.7614 681.817 12.7614C681.817 13.7727 681.431 14.642 680.658 15.3693C679.897 16.0852 678.977 16.4432 677.897 16.4432ZM687.327 55.8182V19.8182H694.487V24.2159H694.81C695.129 23.5114 695.589 22.7955 696.191 22.0682C696.805 21.3295 697.6 20.7159 698.577 20.2273C699.566 19.7273 700.793 19.4773 702.259 19.4773C704.168 19.4773 705.93 19.9773 707.543 20.9773C709.157 21.9659 710.447 23.4602 711.413 25.4602C712.379 27.4489 712.862 29.9432 712.862 32.9432C712.862 35.8636 712.39 38.3295 711.447 40.3409C710.515 42.3409 709.242 43.858 707.629 44.892C706.026 45.9148 704.231 46.4261 702.242 46.4261C700.833 46.4261 699.634 46.1932 698.646 45.7273C697.668 45.2614 696.867 44.6761 696.242 43.9716C695.617 43.2557 695.14 42.5341 694.81 41.8068H694.589V55.8182H687.327ZM694.435 32.9091C694.435 34.4659 694.651 35.8239 695.083 36.983C695.515 38.142 696.14 39.0455 696.958 39.6932C697.776 40.3295 698.771 40.6477 699.941 40.6477C701.123 40.6477 702.123 40.3239 702.941 39.6761C703.759 39.017 704.379 38.108 704.799 36.9489C705.231 35.7784 705.447 34.4318 705.447 32.9091C705.447 31.3977 705.237 30.0682 704.816 28.9205C704.396 27.7727 703.776 26.875 702.958 26.2273C702.14 25.5795 701.134 25.2557 699.941 25.2557C698.759 25.2557 697.759 25.5682 696.941 26.1932C696.134 26.8182 695.515 27.7045 695.083 28.8523C694.651 30 694.435 31.3523 694.435 32.9091Z" fill="#00FFFF" fill-opacity="0.5"/>
</svg>
