<svg width="100" height="101" viewBox="0 0 100 101" fill="none" xmlns="http://www.w3.org/2000/svg">
<path d="M50 0L71.6426 12.3279L90.6662 25L90.8416 50L90.6662 75L71.6426 87.6721L50 100.154L33.2444 87.6721L14.2208 75L14.0453 50L14.2208 25L33.2444 12.3279L50 0Z" fill="#F00000" fill-opacity="0.5"/>
<path d="M49.8462 0L65.7964 12.3279L84.8201 25L84.9955 50L84.8201 75L65.7964 87.6721L49.8462 100L27.3983 87.6721L8.37464 75L8.19922 50L8.37464 25L27.3983 12.3279L49.8462 0Z" fill="#00F4F4" fill-opacity="0.5"/>
<path d="M50 0L69.1991 12.3279L86.4616 25V50V75L69.1991 87.6721L50 100L30.8009 87.6721L13.3846 75L13.3846 50L13.3846 25L30.8009 12.3279L50 0Z" fill="#C7BDBD"/>
<path d="M50.0651 0.307678L66.3136 12.6356L80.9231 25.3077V50.3077V75.3077L66.3136 87.9798L50.0651 100.308L33.8166 87.9798L19.0769 75.3077L19.0769 50.3077L19.0769 25.3077L33.8166 12.6356L50.0651 0.307678Z" fill="#DED3D3"/>
<path d="M50.0476 0.307678L61.9309 12.6356L72.6154 25.3077V50.3077V75.3077L61.9309 87.9798L50.0476 100.308L38.1644 87.9798L27.3846 75.3077L27.3846 50.3077L27.3846 25.3077L38.1644 12.6356L50.0476 0.307678Z" fill="#EEEEEE"/>
<path d="M39.0186 44.7765C36.5725 48.1998 41.7468 21.1939 34.1265 33.2259L21.2352 56.6629C20.4384 57.5765 21.6465 58.8561 22.6044 58.1131L30.6431 51.8774L29.0167 72.7811C28.8791 74.5501 30.2775 76.0615 32.0519 76.0615C33.3035 76.0615 34.4275 75.2956 34.8853 74.1307L43.2775 52.7762C44.1121 50.6524 47.2809 51.3586 47.1348 53.6359L45.8401 73.8103C45.7619 75.0296 46.7297 76.0615 47.9515 76.0615C48.7589 76.0615 49.4959 75.602 49.8512 74.877L58.3903 57.4559C59.7952 54.5896 63.4898 53.7558 65.9895 55.7411L72.5173 60.9253C74.8643 62.7892 78.3127 62.1837 79.8843 59.6316L80.8593 58.0483C81.6954 56.6906 80.2474 55.0793 78.8085 55.7662C77.7306 56.2807 76.4384 55.9239 75.7772 54.9293L69.0271 44.7765C62.912 33.2259 57.8909 47.8792 56.2324 46.2029C58.6785 38.2152 59.4311 17.8348 51.1522 25.8224L39.0186 44.7765Z" fill="black" fill-opacity="0.7"/>
</svg>
