<svg width="125" height="125" viewBox="0 0 125 125" fill="none" xmlns="http://www.w3.org/2000/svg">
<path d="M62.5 0L86.4988 15.4099L110.278 31.25L110.498 62.5L110.278 93.75L86.4988 109.59L62.5 125L38.5012 109.59L14.7216 93.75L14.5023 62.5L14.7216 31.25L38.5012 15.4099L62.5 0Z" fill="#C6C6C6"/>
<path d="M69.8302 0L93.8291 15.4099L117.609 31.25L117.828 62.5L117.609 93.75L93.8291 109.59L69.8302 125L45.8314 109.59L22.0518 93.75L21.8326 62.5L22.0518 31.25L45.8314 15.4099L69.8302 0Z" fill="#FF0000" fill-opacity="0.5"/>
<path d="M55.1698 0L79.1686 15.4099L102.948 31.25L103.167 62.5L102.948 93.75L79.1686 109.59L55.1698 125L31.1709 109.59L7.39135 93.75L7.17207 62.5L7.39135 31.25L31.1709 15.4099L55.1698 0Z" fill="#00FFFF" fill-opacity="0.5"/>
</svg>
