<svg width="100" height="100" viewBox="0 0 100 100" fill="none" xmlns="http://www.w3.org/2000/svg">
<path d="M57.2368 10.8421C57.2368 8.86204 56.3962 6.98458 54.9356 5.61637C53.4782 4.25128 51.5214 3.5 49.5 3.5C47.4786 3.5 45.5218 4.25128 44.0644 5.61637C42.6038 6.98458 41.7632 8.86204 41.7632 10.8421V34.6579H16.2368C14.2154 34.6579 12.2586 35.4092 10.8013 36.7743C9.34063 38.1425 8.5 40.0199 8.5 42C8.5 43.9801 9.34063 45.8575 10.8013 47.2257C12.2586 48.5908 14.2154 49.3421 16.2368 49.3421H41.7632V73.1579C41.7632 75.138 42.6038 77.0154 44.0644 78.3836C45.5218 79.7487 47.4785 80.5 49.5 80.5C51.5215 80.5 53.4782 79.7487 54.9356 78.3836C56.3962 77.0154 57.2368 75.138 57.2368 73.1579V49.3421H82.7632C84.7846 49.3421 86.7414 48.5908 88.1987 47.2257C89.6594 45.8575 90.5 43.9801 90.5 42C90.5 40.0199 89.6594 38.1425 88.1987 36.7743C86.7414 35.4092 84.7846 34.6579 82.7632 34.6579H57.2368V10.8421Z" fill="#FF0000" fill-opacity="0.5" stroke="white" stroke-width="3"/>
</svg>
