<svg width="73" height="73" viewBox="0 0 73 73" fill="none" xmlns="http://www.w3.org/2000/svg">
<path d="M24.7929 21.7877C24.1951 21.1899 23.3844 20.8541 22.539 20.8541C21.6936 20.8541 20.8829 21.1899 20.2851 21.7877C19.6873 22.3855 19.3515 23.1962 19.3515 24.0416C19.3515 24.887 19.6873 25.6978 20.2851 26.2955L30.052 36.0624L20.2851 45.8294C19.6873 46.4271 19.3515 47.2379 19.3515 48.0833C19.3515 48.9286 19.6873 49.7394 20.2851 50.3372C20.8829 50.9349 21.6936 51.2708 22.539 51.2708C23.3844 51.2708 24.1951 50.9349 24.7929 50.3372L34.5598 40.5702L44.3267 50.3372C44.9245 50.9349 45.7352 51.2708 46.5806 51.2708C47.426 51.2708 48.2368 50.9349 48.8345 50.3372C49.4323 49.7394 49.7681 48.9286 49.7681 48.0833C49.7681 47.2379 49.4323 46.4271 48.8345 45.8294L39.0676 36.0624L48.8345 26.2955C49.4323 25.6978 49.7681 24.887 49.7681 24.0416C49.7681 23.1962 49.4323 22.3855 48.8345 21.7877C48.2368 21.1899 47.426 20.8541 46.5806 20.8541C45.7352 20.8541 44.9245 21.1899 44.3267 21.7877L34.5598 31.5546L24.7929 21.7877Z" fill="black" fill-opacity="0.7"/>
</svg>
