<svg width="71" height="71" viewBox="0 0 71 71" fill="none" xmlns="http://www.w3.org/2000/svg">
<path d="M35.5 0C15.8939 0 0 15.8939 0 35.5C0 55.1061 15.8939 71 35.5 71C55.106 71 71 55.1061 71 35.5C71 15.8939 55.106 0 35.5 0ZM35.5 7.71362C50.846 7.71362 63.2821 20.1578 63.2821 35.5C63.2821 50.8422 50.846 63.2821 35.5 63.2821C20.1539 63.2821 7.71794 50.8422 7.71794 35.5C7.718 20.1578 20.1539 7.71362 35.5 7.71362ZM49.1028 18.6427L28.5274 39.2225L21.8538 32.5489L15.3059 39.0925L21.9795 45.7661L28.5707 52.3573L35.1143 45.8094L55.6941 25.2339L49.1028 18.6427Z" fill="#205789" fill-opacity="0.9"/>
</svg>
