<svg width="141" height="141" viewBox="0 0 141 141" fill="none" xmlns="http://www.w3.org/2000/svg">
<path fill-rule="evenodd" clip-rule="evenodd" d="M70.5 0C31.5629 0 0 31.5629 0 70.5C0 109.437 31.5629 141 70.5 141C109.437 141 141 109.437 141 70.5C141 31.5629 109.437 0 70.5 0ZM14.1 70.5C14.1 85.4582 20.0421 99.8038 30.6192 110.381C41.1962 120.958 55.5418 126.9 70.5 126.9C85.4582 126.9 99.8038 120.958 110.381 110.381C120.958 99.8038 126.9 85.4582 126.9 70.5C126.9 55.5418 120.958 41.1962 110.381 30.6192C99.8038 20.0421 85.4582 14.1 70.5 14.1C55.5418 14.1 41.1962 20.0421 30.6192 30.6192C20.0421 41.1962 14.1 55.5418 14.1 70.5Z" fill="black"/>
<path d="M63.5 63.2494C63.5 61.3797 64.2428 59.5865 65.5649 58.2643C66.887 56.9422 68.6802 56.1994 70.55 56.1994C72.4198 56.1994 74.213 56.9422 75.5351 58.2643C76.8572 59.5865 77.6 61.3797 77.6 63.2494V105.549C77.6 107.419 76.8572 109.212 75.5351 110.535C74.213 111.857 72.4198 112.599 70.55 112.599C68.6802 112.599 66.887 111.857 65.5649 110.535C64.2428 109.212 63.5 107.419 63.5 105.549V63.2494ZM70.55 28.5C68.6802 28.5 66.887 29.2428 65.5649 30.5649C64.2428 31.887 63.5 33.6802 63.5 35.55C63.5 37.4198 64.2428 39.213 65.5649 40.5351C66.887 41.8572 68.6802 42.6 70.55 42.6C72.4198 42.6 74.213 41.8572 75.5351 40.5351C76.8572 39.213 77.6 37.4198 77.6 35.55C77.6 33.6802 76.8572 31.887 75.5351 30.5649C74.213 29.2428 72.4198 28.5 70.55 28.5Z" fill="black"/>
</svg>
