<svg width="61" height="51" viewBox="0 0 61 51" fill="none" xmlns="http://www.w3.org/2000/svg">
<path d="M30.3858 0.00443824C13.6054 0.00443824 0 9.05028 0 20.2084C0 26.5917 4.46634 32.2784 11.4199 35.9793C10.4303 39.263 8.45566 42.8951 4.63941 46.1101C4.63941 46.1101 13.5499 45.5199 19.8423 39.1365C20.2039 39.2253 20.5789 39.2918 20.945 39.3717C20.5884 38.3417 20.4033 37.2601 20.397 36.1701C20.397 28.6418 28.775 22.7466 39.4782 22.7466C47.1617 22.7466 53.6294 25.7996 56.6735 30.3037C59.265 27.3306 60.7716 23.8848 60.7716 20.2017C60.7716 9.04584 47.1662 0 30.3858 0V0.00443824ZM56.3341 36.1745C56.3341 29.9842 48.7903 24.9632 39.4716 24.9632C30.1639 24.9632 22.6135 29.9864 22.6135 36.1767C22.6135 42.367 30.1639 47.3881 39.476 47.3881C41.535 47.3881 43.4986 47.1307 45.3246 46.6781C48.8147 50.2236 53.7559 50.5498 53.7559 50.5498C51.6414 48.7659 50.5476 46.7491 49.9973 44.9275C53.8535 42.8751 56.3341 39.7201 56.3341 36.1767V36.1745Z" fill="#B8B6B5"/>
</svg>
