<svg width="141" height="141" viewBox="0 0 141 141" fill="none" xmlns="http://www.w3.org/2000/svg">
<path d="M70.4339 26.3141C37.1095 26.3141 10.0903 44.2784 10.0903 66.4374C10.0903 79.1142 18.9601 90.4074 32.7693 97.7571C30.8041 104.278 26.8826 111.491 19.3038 117.876C19.3038 117.876 36.9993 116.704 49.4954 104.027C50.2136 104.203 50.9583 104.336 51.6853 104.494C50.9771 102.449 50.6095 100.301 50.597 98.136C50.597 83.1856 67.235 71.4782 88.4907 71.4782C103.75 71.4782 116.594 77.5412 122.639 86.4859C127.786 80.5815 130.778 73.7386 130.778 66.4242C130.778 44.2696 103.758 26.3053 70.4339 26.3053V26.3141ZM121.965 98.1448C121.965 85.8514 106.984 75.88 88.4775 75.88C69.9933 75.88 54.9988 85.8558 54.9988 98.1492C54.9988 110.443 69.9933 120.414 88.4863 120.414C92.5753 120.414 96.4749 119.903 100.101 119.004C107.032 126.045 116.845 126.693 116.845 126.693C112.646 123.15 110.474 119.145 109.381 115.527C117.039 111.452 121.965 105.186 121.965 98.1492V98.1448Z" fill="black"/>
</svg>
