<svg width="71" height="71" viewBox="0 0 71 71" fill="none" xmlns="http://www.w3.org/2000/svg">
<path d="M35.4668 13.2504C18.6864 13.2504 5.08105 22.2962 5.08105 33.4543C5.08105 39.8377 9.5474 45.5243 16.501 49.2252C15.5114 52.5089 13.5367 56.141 9.72046 59.356C9.72046 59.356 18.631 58.7658 24.9233 52.3825C25.285 52.4712 25.66 52.5378 26.0261 52.6177C25.6694 51.5876 25.4843 50.506 25.478 49.416C25.478 41.8878 33.856 35.9926 44.5593 35.9926C52.2428 35.9926 58.7105 39.0456 61.7546 43.5496C64.3461 40.5765 65.8526 37.1308 65.8526 33.4477C65.8526 22.2918 52.2472 13.2459 35.4668 13.2459V13.2504ZM61.4151 49.4204C61.4151 43.2301 53.8714 38.2091 44.5526 38.2091C35.245 38.2091 27.6946 43.2323 27.6946 49.4227C27.6946 55.613 35.245 60.634 44.5571 60.634C46.6161 60.634 48.5797 60.3766 50.4057 59.924C53.8958 63.4696 58.8369 63.7957 58.8369 63.7957C56.7225 62.0118 55.6286 59.995 55.0784 58.1734C58.9346 56.1211 61.4151 52.966 61.4151 49.4227V49.4204Z" fill="#BED1E8"/>
</svg>
