<svg width="325" height="326" viewBox="0 0 325 326" fill="none" xmlns="http://www.w3.org/2000/svg">
<path d="M162.5 0L232.838 40.0657L294.665 81.25L295.235 162.5L294.665 243.75L232.838 284.934L162.5 325.5L108.044 284.934L46.2175 243.75L45.6474 162.5L46.2175 81.25L108.044 40.0657L162.5 0Z" fill="#F00000" fill-opacity="0.5"/>
<path d="M162 0L213.838 40.0657L275.665 81.25L276.235 162.5L275.665 243.75L213.838 284.934L162 325L89.0444 284.934L27.2175 243.75L26.6474 162.5L27.2175 81.25L89.0444 40.0657L162 0Z" fill="#00F4F4" fill-opacity="0.5"/>
<path d="M162.5 0L224.897 40.0657L281 81.25V162.5V243.75L224.897 284.934L162.5 325L100.103 284.934L43.5 243.75L43.5 162.5L43.5 81.25L100.103 40.0657L162.5 0Z" fill="#C7BDBD"/>
<path d="M162.712 1L215.519 41.0657L263 82.25V163.5V244.75L215.519 285.934L162.712 326L109.904 285.934L62 244.75L62 163.5L62 82.25L109.904 41.0657L162.712 1Z" fill="#DED3D3"/>
<path d="M162.655 1L201.275 41.0657L236 82.25V163.5V244.75L201.275 285.934L162.655 326L124.034 285.934L89 244.75L89 163.5L89 82.25L124.034 41.0657L162.655 1Z" fill="#EEEEEE"/>
<path d="M126.81 145.524C118.861 156.649 135.677 68.88 110.911 107.984L69.0144 184.154C66.4247 187.124 70.351 191.282 73.4641 188.868L99.5899 168.602L94.0617 239.657C93.7452 243.725 96.9606 247.2 101.041 247.2H106.141C109.019 247.2 111.603 245.439 112.656 242.76L151.173 144.751C152.008 142.627 155.176 143.334 155.03 145.611L148.852 241.88C148.667 244.761 150.955 247.2 153.842 247.2H157.012C158.92 247.2 160.662 246.114 161.502 244.401L195.92 174.18C197.325 171.314 201.02 170.48 203.52 172.465L245.609 205.892C247.956 207.756 251.405 207.15 252.976 204.598L268.48 179.422C269.525 177.724 267.714 175.71 265.915 176.568L252.371 183.033C251.023 183.676 249.407 183.23 248.58 181.987L224.338 145.524C204.464 107.984 188.145 155.607 182.755 150.159C190.705 124.199 193.151 57.963 166.245 83.9229L126.81 145.524Z" fill="black" fill-opacity="0.7"/>
</svg>
