<svg width="78" height="78" viewBox="0 0 78 78" fill="none" xmlns="http://www.w3.org/2000/svg">
<path d="M19.5 20.3125V26H14.2188C12.1716 26 10.2083 26.8132 8.76077 28.2608C7.31322 29.7083 6.5 31.6716 6.5 33.7188V63.7812C6.5 65.8284 7.31322 67.7917 8.76077 69.2392C10.2083 70.6868 12.1716 71.5 14.2188 71.5H50.7812C51.09 71.5 51.3923 71.4821 51.6912 71.4464C50.9662 70.9133 50.2677 70.3449 49.5982 69.7434C48.7971 69.024 48.0432 68.2538 47.3411 67.4375H14.2188C13.2491 67.4375 12.3191 67.0523 11.6334 66.3666C10.9477 65.6809 10.5625 64.7509 10.5625 63.7812V33.7188C10.5625 32.7491 10.9477 31.8191 11.6334 31.1334C12.3191 30.4477 13.2491 30.0625 14.2188 30.0625H50.7812C51.7509 30.0625 52.6809 30.4477 53.3666 31.1334C54.0523 31.8191 54.4375 32.7491 54.4375 33.7188V37.8365C54.7177 37.5924 54.9935 37.3431 55.2646 37.089L55.3345 37.024L55.3459 37.011C56.1896 36.1908 57.3234 35.7375 58.5 35.75V33.7188C58.5 31.6716 57.6868 29.7083 56.2392 28.2608C54.7917 26.8132 52.8284 26 50.7812 26H45.5V20.3125C45.5 16.8647 44.1304 13.5581 41.6924 11.1201C39.2544 8.68214 35.9478 7.3125 32.5 7.3125C29.0522 7.3125 25.7456 8.68214 23.3076 11.1201C20.8696 13.5581 19.5 16.8647 19.5 20.3125ZM32.5 11.375C34.8704 11.375 37.1437 12.3166 38.8198 13.9927C40.4959 15.6688 41.4375 17.9421 41.4375 20.3125V26H23.5625V20.3125C23.5625 17.9421 24.5041 15.6688 26.1802 13.9927C27.8563 12.3166 30.1296 11.375 32.5 11.375ZM37.375 48.75C37.375 50.0429 36.8614 51.2829 35.9471 52.1971C35.0329 53.1114 33.7929 53.625 32.5 53.625C31.2071 53.625 29.9671 53.1114 29.0529 52.1971C28.1386 51.2829 27.625 50.0429 27.625 48.75C27.625 47.4571 28.1386 46.2171 29.0529 45.3029C29.9671 44.3886 31.2071 43.875 32.5 43.875C33.7929 43.875 35.0329 44.3886 35.9471 45.3029C36.8614 46.2171 37.375 47.4571 37.375 48.75ZM45.5 45.11V54.4375C45.5 64.9724 55.7603 70.3593 58.0482 71.4285C58.1886 71.4955 58.3421 71.5302 58.4976 71.5302C58.653 71.5302 58.8066 71.4955 58.9469 71.4285C61.2365 70.3658 71.5 65.0163 71.5 54.7836V45.11C71.4963 44.7819 71.3656 44.4681 71.1353 44.2344C70.9049 44.0008 70.593 43.8655 70.265 43.8571C68.7018 43.8035 65.9961 43.6069 64.1859 42.9C62.5024 42.2435 60.5573 40.5112 59.4328 39.4144C59.1816 39.1735 58.8471 39.0391 58.4992 39.0391C58.1512 39.0391 57.8167 39.1735 57.5656 39.4144C56.4411 40.5112 54.4944 42.2419 52.8125 42.9C51.0039 43.6069 48.2983 43.8035 46.735 43.8571C46.407 43.8655 46.0951 44.0008 45.8647 44.2344C45.6344 44.4681 45.5037 44.7819 45.5 45.11Z" fill="#EEEEEE"/>
</svg>
